<svg width="231" height="84" viewBox="0 0 231 84" fill="none" xmlns="http://www.w3.org/2000/svg">
<path d="M43.5289 82.1334H57.1062V64.1307H68.6124V52.5494H57.1062V1.29338H45.0247L0.265686 54.0401L2.91211 64.1307H43.5289V82.1334ZM17.0647 52.5494L43.5289 20.7867V52.5494H17.0647ZM115.979 83.5094C137.151 83.5094 151.188 64.9334 151.188 42.0001C151.188 18.8374 137.266 0.490723 116.209 0.490723C95.038 0.490723 81.0005 19.0667 81.0005 42.0001C81.0005 65.1627 94.8079 83.5094 115.979 83.5094ZM116.209 70.7814C103.668 70.7814 95.6133 57.8241 95.6133 42.0001C95.6133 25.8321 103.553 13.2187 115.979 13.2187C128.406 13.2187 136.575 26.1761 136.575 42.0001C136.575 58.0534 128.751 70.7814 116.209 70.7814ZM205.11 82.1334H218.687V64.1307H230.193V52.5494H218.687V1.29338H206.606L161.847 54.0401L164.493 64.1307H205.11V82.1334ZM178.646 52.5494L205.11 20.7867V52.5494H178.646Z" fill="#96460A"/>
</svg>
