<svg width="22" height="21" viewBox="0 0 22 21" fill="none" xmlns="http://www.w3.org/2000/svg">
<path d="M18.103 7.99902H20.0038C20.556 7.99902 21.0042 8.44721 21.0042 8.99944V9.99986C21.0042 10.5521 20.556 11.0003 20.0038 11.0003H18.5032" stroke="#96460A" stroke-width="1.5" stroke-linecap="round" stroke-linejoin="round"/>
<path d="M3.89706 7.99902H1.99627C1.44404 7.99902 0.99585 8.44721 0.99585 8.99944V9.99986C0.99585 10.5521 1.44404 11.0003 1.99627 11.0003H3.49689" stroke="#96460A" stroke-width="1.5" stroke-linecap="round" stroke-linejoin="round"/>
<path d="M6.59009 13.7512H7.5905" stroke="#96460A" stroke-width="1.5" stroke-linecap="round" stroke-linejoin="round"/>
<path d="M14.5935 13.7512H15.5939" stroke="#96460A" stroke-width="1.5" stroke-linecap="round" stroke-linejoin="round"/>
<path d="M3.99707 7.4988V2.99693C3.99707 1.89147 4.89244 0.996094 5.9979 0.996094H16.0021C17.1075 0.996094 18.0029 1.89147 18.0029 2.99693V7.4988" stroke="#96460A" stroke-width="1.5" stroke-linecap="round" stroke-linejoin="round"/>
<path d="M18.4631 10.0002H3.53687" stroke="#96460A" stroke-width="1.5" stroke-linecap="round" stroke-linejoin="round"/>
<path fill-rule="evenodd" clip-rule="evenodd" d="M3.49683 10.7925V15.0022C3.49683 16.1077 4.3922 17.003 5.49766 17.003H16.5022C17.6077 17.003 18.5031 16.1077 18.5031 15.0022V10.7925C18.5031 10.2652 18.4511 9.74002 18.348 9.22281L17.8248 6.60672C17.6377 5.67133 16.8164 4.99805 15.862 4.99805H6.13793C5.18353 4.99805 4.36219 5.67133 4.17511 6.60672L3.65189 9.22281C3.54885 9.74002 3.49683 10.2652 3.49683 10.7925Z" stroke="#96460A" stroke-width="1.5" stroke-linecap="round" stroke-linejoin="round"/>
<path d="M7.2344 17.0031V18.5037C7.2344 19.0559 6.78622 19.5041 6.23399 19.5041H5.23357C4.68134 19.5041 4.23315 19.0559 4.23315 18.5037V16.5469" stroke="#96460A" stroke-width="1.5" stroke-linecap="round" stroke-linejoin="round"/>
<path d="M17.7669 16.5469V18.5037C17.7669 19.0559 17.3187 19.5041 16.7665 19.5041H15.766C15.2138 19.5041 14.7656 19.0559 14.7656 18.5037V17.0031" stroke="#96460A" stroke-width="1.5" stroke-linecap="round" stroke-linejoin="round"/>
</svg>
