<svg width="20" height="21" viewBox="0 0 20 21" fill="none" xmlns="http://www.w3.org/2000/svg">
<path d="M7.116 13.1865C3.562 13.6545 1 14.9595 1 16.4995C1 18.4325 5.029 19.9995 10 19.9995C14.971 19.9995 19 18.4325 19 16.4995C19 14.9595 16.438 13.6545 12.884 13.1865" stroke="#96460A" stroke-width="1.5" stroke-linecap="round" stroke-linejoin="round"/>
<path fill-rule="evenodd" clip-rule="evenodd" d="M16 6.833C16 3.612 13.314 1 10 1C6.686 1 4 3.612 4 6.833C4 11.208 10 16 10 16C10 16 16 11.208 16 6.833Z" stroke="#96460A" stroke-width="1.5" stroke-linecap="round" stroke-linejoin="round"/>
<path d="M11.4142 5.58579C12.1953 6.36684 12.1953 7.63317 11.4142 8.41422C10.6332 9.19527 9.36684 9.19527 8.58579 8.41422C7.80474 7.63317 7.80474 6.36684 8.58579 5.58579C9.36684 4.80474 10.6332 4.80474 11.4142 5.58579" stroke="#96460A" stroke-width="1.5" stroke-linecap="round" stroke-linejoin="round"/>
</svg>
