<svg width="20" height="20" viewBox="0 0 20 20" fill="none" xmlns="http://www.w3.org/2000/svg">
<path fill-rule="evenodd" clip-rule="evenodd" d="M8.85615 11.1444C7.68615 9.97436 6.80415 8.66436 6.21815 7.33536C6.09415 7.05436 6.16715 6.72536 6.38415 6.50836L7.20315 5.69036C7.87415 5.01936 7.87415 4.07036 7.28815 3.48436L6.11415 2.31036C5.33315 1.52936 4.06715 1.52936 3.28615 2.31036L2.63415 2.96236C1.89315 3.70336 1.58415 4.77236 1.78415 5.83236C2.27815 8.44536 3.79615 11.3064 6.24515 13.7554C8.69415 16.2044 11.5551 17.7224 14.1681 18.2164C15.2281 18.4164 16.2971 18.1074 17.0381 17.3664L17.6891 16.7154C18.4701 15.9344 18.4701 14.6684 17.6891 13.8874L16.5161 12.7144C15.9301 12.1284 14.9801 12.1284 14.3951 12.7144L13.4921 13.6184C13.2751 13.8354 12.9461 13.9084 12.6651 13.7844C11.3361 13.1974 10.0261 12.3144 8.85615 11.1444Z" stroke="#96460A" stroke-width="1.5" stroke-linecap="round" stroke-linejoin="round"/>
</svg>
