<svg width="18" height="22" viewBox="0 0 18 22" fill="none" xmlns="http://www.w3.org/2000/svg">
<path fill-rule="evenodd" clip-rule="evenodd" d="M6.74913 18.0029H11.251C11.3891 18.0029 11.5011 18.115 11.5011 18.253V20.0038C11.5011 20.556 11.0529 21.0042 10.5007 21.0042H7.49944C6.94721 21.0042 6.49902 20.556 6.49902 20.0038V18.253C6.49902 18.115 6.61107 18.0029 6.74913 18.0029Z" stroke="#96460A" stroke-width="1.5" stroke-linecap="round" stroke-linejoin="round"/>
<path fill-rule="evenodd" clip-rule="evenodd" d="M9.00019 15.0019C10.7688 15.0019 12.2025 11.8666 12.2025 7.99901C12.2025 4.13141 10.7688 0.996094 9.00019 0.996094C7.23159 0.996094 5.79785 4.13141 5.79785 7.99901C5.79785 11.8666 7.23159 15.0019 9.00019 15.0019Z" stroke="#96460A" stroke-width="1.5" stroke-linecap="round" stroke-linejoin="round"/>
<path d="M13.359 15.0022H4.64136" stroke="#96460A" stroke-width="1.5" stroke-linecap="round" stroke-linejoin="round"/>
<path d="M7.64253 18.0032L3.14365 13.5043C1.93115 12.2918 1.18284 10.6941 1.02777 8.98642V8.98642C0.637609 4.69563 4.01602 0.996094 8.32481 0.996094H9.67637C13.9852 0.996094 17.3636 4.69563 16.9734 8.98642V8.98642C16.8183 10.6931 16.069 12.2918 14.8575 13.5043L10.3577 18.0032" stroke="#96460A" stroke-width="1.5" stroke-linecap="round" stroke-linejoin="round"/>
</svg>
