<?xml version="1.0" encoding="UTF-8" standalone="no"?>
<svg
   xmlns:dc="http://purl.org/dc/elements/1.1/"
   xmlns:cc="http://creativecommons.org/ns#"
   xmlns:rdf="http://www.w3.org/1999/02/22-rdf-syntax-ns#"
   xmlns:svg="http://www.w3.org/2000/svg"
   xmlns="http://www.w3.org/2000/svg"
   viewBox="0 0 692.88 227.54668"
   height="227.54668"
   width="692.88"
   xml:space="preserve"
   id="svg2"
   version="1.1"><metadata
     id="metadata8"><rdf:RDF><cc:Work
         rdf:about=""><dc:format>image/svg+xml</dc:format><dc:type
           rdf:resource="http://purl.org/dc/dcmitype/StillImage" /></cc:Work></rdf:RDF></metadata><defs
     id="defs6" /><g
     transform="matrix(1.3333333,0,0,-1.3333333,0,227.54667)"
     id="g10"><g
       transform="scale(0.1)"
       id="g12"><path
         id="path14"
         style="fill:#96460A;fill-opacity:1;fill-rule:nonzero;stroke:none"
         d="m 18.2852,119.48 c -1.7618,5.168 -5.0391,9.891 -9.84379,14.141 L 23.1328,147.48 c 7.5781,-4.441 13.2149,-11.82 16.9102,-22.171 12.0117,14.41 27.0781,21.621 45.1953,21.621 14.5976,0 26.1997,-3.981 34.7887,-11.93 8.594,-7.941 12.891,-19.488 12.891,-34.648 V 3.60156 L 110.184,3.32031 V 97.3008 c 0,9.0512 -1.938,16.1792 -5.821,21.3472 -3.879,5.18 -10.7185,7.762 -20.5153,7.762 -8.5,0 -15.6602,-1.98 -21.4844,-5.961 -5.8203,-3.969 -12.0586,-10.39 -18.711,-19.258 V 3.60156 H 20.918 V 102.02 c 0,6.468 -0.8789,12.281 -2.6328,17.46" /><path
         id="path16"
         style="fill:#96460A;fill-opacity:1;fill-rule:nonzero;stroke:none"
         d="m 327.676,30.8984 c 6.558,6.2032 9.84,14.1914 9.84,23.9805 v 16.9219 h -24.118 c -13.863,0 -23.89,-1.9922 -30.082,-5.961 -6.195,-3.9804 -9.289,-10.3085 -9.289,-19 0,-7.9414 2.453,-14.1289 7.352,-18.5703 4.891,-4.4297 11.684,-6.6601 20.375,-6.6601 10.715,0 19.359,3.1094 25.922,9.289 z m 14.832,-12.8867 c -4.25,-5.3633 -9.938,-9.52342 -17.051,-12.47264 -7.117,-2.94922 -15.109,-4.4375 -23.98,-4.4375 -15.157,0 -27.305,4.16016 -36.454,12.47654 -9.152,8.3203 -13.726,19.3125 -13.726,32.9922 0,14.418 5.449,25.6406 16.359,33.6914 10.899,8.0274 26.149,12.0469 45.742,12.0469 h 24.118 v 5.832 c 0,10.5274 -1.895,17.9684 -5.68,22.3084 -3.789,4.352 -10.215,6.52 -19.27,6.52 -7.761,0 -15.382,-1.391 -22.871,-4.16 -7.484,-2.77 -14.375,-6.75 -20.656,-11.918 l -11.09,16.91 c 6.656,6.097 14.875,10.91 24.672,14.418 9.801,3.511 19.867,5.261 30.223,5.261 15.34,0 27.078,-3.98 35.211,-11.921 8.129,-7.95 12.195,-19.411 12.195,-34.368 V 46.0195 c 0,-14.6093 3.977,-25.2304 11.922,-31.8906 L 357.48,0.269531 C 350.453,5.07813 345.461,10.9883 342.508,18.0117" /><path
         id="path18"
         style="fill:#96460A;fill-opacity:1;fill-rule:nonzero;stroke:none"
         d="m 501.363,11.7695 c -7.39,7.8594 -11.086,19.1797 -11.086,33.9688 V 178.262 h 22.735 V 144.43 h 42.695 V 123.922 H 513.012 V 45.7383 c 0,-9.0586 1.89,-15.3477 5.683,-18.8477 3.785,-3.5195 8.266,-5.2812 13.446,-5.2812 3.695,0 6.695,0.3789 9.007,1.1094 2.313,0.7421 5.411,2.1328 9.29,4.1718 L 560.973,8.30859 C 553.578,2.76172 544.063,0 532.418,0 519.109,0 508.758,3.92188 501.363,11.7695" /><path
         id="path20"
         style="fill:#96460A;fill-opacity:1;fill-rule:nonzero;stroke:none"
         d="m 689.332,13.9883 c -8.871,8.2226 -13.309,19.7305 -13.309,34.5234 v 93.7073 h 22.735 l 0.273,-90.9377 c 0,-9.25 2.176,-16.4024 6.516,-21.4805 4.344,-5.082 11.508,-7.6289 21.488,-7.6289 8.317,0 15.387,2.0898 21.211,6.2383 5.82,4.1484 11.961,10.7695 18.434,19.8203 v 94.2575 h 22.73 V 46.5703 c 0,-14.4101 4.07,-25.0508 12.203,-31.8906 L 787.195,1.10156 c -3.699,2.21875 -7.117,5.44922 -10.254,9.69924 -3.148,4.25 -5.546,8.5976 -7.211,13.039 -4.07,-7.3984 -10.121,-12.9414 -18.156,-16.64058 -8.043,-3.6875 -16.5,-5.53906 -25.367,-5.53906 -15.715,0 -28.004,4.10156 -36.875,12.32814" /><path
         id="path22"
         style="fill:#96460A;fill-opacity:1;fill-rule:nonzero;stroke:none"
         d="m 999,144.43 -0.551,-21.899 c -7.394,2.028 -13.406,3.047 -18.023,3.047 -8.688,0 -15.434,-2.039 -20.238,-6.098 -5.543,-4.429 -10.352,-10.351 -14.418,-17.742 V 3.60156 H 923.043 V 101.738 c 0,14.41 -3.887,24.953 -11.648,31.614 l 15.25,14.128 c 2.769,-1.66 5.585,-4.16 8.453,-7.492 2.863,-3.316 5.222,-7.109 7.07,-11.359 4.062,5.172 8.219,9.152 12.477,11.922 7.023,4.429 15.429,6.66 25.226,6.66 5.359,0 11.734,-0.93 19.129,-2.781" /><path
         id="path24"
         style="fill:#96460A;fill-opacity:1;fill-rule:nonzero;stroke:none"
         d="m 1180.18,30.8984 c 6.56,6.2032 9.84,14.1914 9.84,23.9805 v 16.9219 h -24.12 c -13.86,0 -23.89,-1.9922 -30.08,-5.961 -6.2,-3.9804 -9.29,-10.3085 -9.29,-19 0,-7.9414 2.45,-14.1289 7.35,-18.5703 4.89,-4.4297 11.68,-6.6601 20.37,-6.6601 10.72,0 19.37,3.1094 25.93,9.289 z m 14.83,-12.8867 c -4.25,-5.3633 -9.94,-9.52342 -17.05,-12.47264 -7.12,-2.94922 -15.11,-4.4375 -23.98,-4.4375 -15.16,0 -27.31,4.16016 -36.46,12.47654 -9.15,8.3203 -13.72,19.3125 -13.72,32.9922 0,14.418 5.45,25.6406 16.36,33.6914 10.9,8.0274 26.14,12.0469 45.74,12.0469 h 24.12 v 5.832 c 0,10.5274 -1.9,17.9684 -5.68,22.3084 -3.79,4.352 -10.22,6.52 -19.27,6.52 -7.76,0 -15.39,-1.391 -22.87,-4.16 -7.49,-2.77 -14.38,-6.75 -20.66,-11.918 l -11.09,16.91 c 6.65,6.097 14.88,10.91 24.67,14.418 9.8,3.511 19.87,5.261 30.22,5.261 15.34,0 27.08,-3.98 35.21,-11.921 8.13,-7.95 12.2,-19.411 12.2,-34.368 V 46.0195 c 0,-14.6093 3.98,-25.2304 11.92,-31.8906 L 1209.98,0.269531 C 1202.95,5.07813 1197.96,10.9883 1195.01,18.0117" /><path
         id="path26"
         style="fill:#96460A;fill-opacity:1;fill-rule:nonzero;stroke:none"
         d="m 1345.55,205.422 h 22.18 V 3.60156 h -22.18 V 205.422" /><path
         id="path28"
         style="fill:#96460A;fill-opacity:1;fill-rule:nonzero;stroke:none"
         d="m 1767.22,37.418 -55.45,50.1718 c -6.65,-3.3085 -11.83,-8.0312 -15.52,-14.1289 -3.7,-6.0898 -5.55,-13.0312 -5.55,-20.789 0,-9.6133 3.51,-17.1914 10.54,-22.7422 7.02,-5.5391 16.17,-8.3203 27.45,-8.3203 14.78,0 27.62,5.2812 38.53,15.8086 z M 1697.36,7.48047 c -9.06,4.25003 -16.13,10.25003 -21.21,18.01953 -5.09,7.7617 -7.62,16.7305 -7.62,26.8906 0,10.1602 2.49,19.7305 7.48,28.6875 4.99,8.961 11.83,16.1328 20.52,21.4919 -4.26,5.719 -7.31,11.09 -9.15,16.078 -1.85,4.993 -2.77,10.352 -2.77,16.082 0,8.5 2.16,16.27 6.51,23.29 4.34,7.019 10.21,12.558 17.6,16.628 7.4,4.071 15.53,6.114 24.4,6.114 9.43,0 18.16,-2.692 26.2,-8.051 8.04,-5.359 13.07,-11.82 15.11,-19.41 l -15.25,-13.313 c -5.73,13.133 -14.69,19.692 -26.89,19.692 -7.58,0 -13.63,-2.078 -18.16,-6.239 -4.53,-4.16 -6.79,-9.75 -6.79,-16.769 0,-4.254 0.83,-8.274 2.49,-12.063 1.67,-3.789 4.53,-8 8.6,-12.609 l 61.55,-57.1211 c 2.58,5.5508 4.61,11.6524 6.09,18.3008 1.48,6.6601 2.22,13.0391 2.22,19.1289 v 11.0894 h 20.79 V 91.7617 c 0,-8.8711 -1.2,-17.7929 -3.6,-26.75 -2.4,-8.9726 -5.73,-17.0625 -9.98,-24.2617 L 1820.45,17.4609 1806.59,1.66016 1782.47,23.5586 C 1767.5,8.58984 1749.38,1.10156 1728.13,1.10156 c -11.46,0 -21.72,2.12891 -30.77,6.37891" /><path
         id="path30"
         style="fill:#96460A;fill-opacity:1;fill-rule:nonzero;stroke:none"
         d="m 2118.47,142.77 22.74,-0.282 V 3.60156 l -22.74,0.26953 z m 0.83,31.332 c -2.96,2.949 -4.43,6.277 -4.43,9.968 0,3.891 1.47,7.309 4.43,10.27 2.96,2.949 6.29,4.43 9.99,4.43 3.88,0 7.34,-1.481 10.39,-4.43 3.05,-2.961 4.58,-6.379 4.58,-10.27 0,-3.691 -1.53,-7.019 -4.58,-9.968 -3.05,-2.961 -6.51,-4.442 -10.39,-4.442 -3.7,0 -7.03,1.481 -9.99,4.442" /><path
         id="path32"
         style="fill:#96460A;fill-opacity:1;fill-rule:nonzero;stroke:none"
         d="m 2272.76,119.48 c -1.76,5.168 -5.04,9.891 -9.85,14.141 l 14.7,13.859 c 7.57,-4.441 13.21,-11.82 16.91,-22.171 12.01,14.41 27.07,21.621 45.19,21.621 14.6,0 26.2,-3.981 34.79,-11.93 8.6,-7.941 12.89,-19.488 12.89,-34.648 V 3.60156 L 2364.66,3.32031 V 97.3008 c 0,9.0512 -1.94,16.1792 -5.82,21.3472 -3.88,5.18 -10.72,7.762 -20.52,7.762 -8.5,0 -15.66,-1.98 -21.48,-5.961 -5.82,-3.969 -12.06,-10.39 -18.71,-19.258 V 3.60156 h -22.74 V 102.02 c 0,6.468 -0.88,12.281 -2.63,17.46" /><path
         id="path34"
         style="fill:#96460A;fill-opacity:1;fill-rule:nonzero;stroke:none"
         d="m 2516.16,119.48 c -1.75,5.168 -5.03,9.891 -9.84,14.141 l 14.7,13.859 c 7.57,-4.441 13.21,-11.82 16.91,-22.171 12.02,14.41 27.07,21.621 45.19,21.621 14.6,0 26.19,-3.981 34.8,-11.93 8.59,-7.941 12.89,-19.488 12.89,-34.648 V 3.60156 L 2608.07,3.32031 V 97.3008 c 0,9.0512 -1.94,16.1792 -5.82,21.3472 -3.89,5.18 -10.73,7.762 -20.51,7.762 -8.51,0 -15.67,-1.98 -21.5,-5.961 -5.81,-3.969 -12.05,-10.39 -18.7,-19.258 V 3.60156 H 2518.8 V 102.02 c 0,6.468 -0.88,12.281 -2.64,17.46" /><path
         id="path36"
         style="fill:#96460A;fill-opacity:1;fill-rule:nonzero;stroke:none"
         d="m 2852.45,36.0313 c 8.41,9.6093 12.62,22.2695 12.62,37.9804 0,15.8985 -4.21,28.6483 -12.62,38.2583 -8.41,9.609 -19.54,14.421 -33.4,14.421 -9.05,0 -17.1,-2.222 -24.12,-6.652 -7.03,-4.437 -12.48,-10.629 -16.36,-18.57 -3.88,-7.9573 -5.82,-17.1096 -5.82,-27.4573 0,-15.7109 4.25,-28.3711 12.75,-37.9804 8.5,-9.6094 19.69,-14.4219 33.55,-14.4219 13.86,0 24.99,4.8125 33.4,14.4219 z m -69.03,-25.5 c -10.44,6.2773 -18.62,14.9179 -24.54,25.9179 -5.9,10.9922 -8.86,23.4297 -8.86,37.2891 0,13.8515 3,26.3827 9.01,37.5627 6,11.179 14.23,19.969 24.68,26.347 10.44,6.364 22.21,9.563 35.34,9.563 13.12,0 24.9,-3.141 35.34,-9.43 10.44,-6.293 18.63,-15.011 24.54,-26.203 5.92,-11.187 8.88,-23.6991 8.88,-37.5663 0,-13.8633 -2.96,-26.332 -8.88,-37.4336 -5.91,-11.0781 -14.14,-19.7695 -24.67,-26.0468 -10.53,-6.29302 -22.37,-9.42974 -35.49,-9.42974 -13.12,0 -24.91,3.13672 -35.35,9.42974" /><path
         id="path38"
         style="fill:#96460A;fill-opacity:1;fill-rule:nonzero;stroke:none"
         d="m 3000.36,126.551 c -2.96,2.871 -5.92,4.668 -8.87,5.41 l 12.2,18.578 c 11.46,-6.469 20.05,-17.391 25.78,-32.719 l 30.49,-80.6716 39.1,107.5626 h 22.73 L 3070.22,3.60156 h -20.23 L 3007.02,117.262 c -1.48,3.328 -3.7,6.418 -6.66,9.289" /><path
         id="path40"
         style="fill:#96460A;fill-opacity:1;fill-rule:nonzero;stroke:none"
         d="m 3299.91,30.8984 c 6.56,6.2032 9.85,14.1914 9.85,23.9805 v 16.9219 h -24.13 c -13.86,0 -23.88,-1.9922 -30.08,-5.961 -6.19,-3.9804 -9.28,-10.3085 -9.28,-19 0,-7.9414 2.45,-14.1289 7.35,-18.5703 4.89,-4.4297 11.68,-6.6601 20.38,-6.6601 10.71,0 19.35,3.1094 25.91,9.289 z m 14.84,-12.8867 c -4.26,-5.3633 -9.94,-9.52342 -17.05,-12.47264 -7.12,-2.94922 -15.11,-4.4375 -23.99,-4.4375 -15.15,0 -27.3,4.16016 -36.45,12.47654 -9.15,8.3203 -13.72,19.3125 -13.72,32.9922 0,14.418 5.45,25.6406 16.35,33.6914 10.91,8.0274 26.16,12.0469 45.74,12.0469 h 24.13 v 5.832 c 0,10.5274 -1.9,17.9684 -5.69,22.3084 -3.79,4.352 -10.21,6.52 -19.26,6.52 -7.77,0 -15.4,-1.391 -22.88,-4.16 -7.48,-2.77 -14.37,-6.75 -20.65,-11.918 l -11.09,16.91 c 6.66,6.097 14.87,10.91 24.67,14.418 9.8,3.511 19.87,5.261 30.22,5.261 15.34,0 27.08,-3.98 35.21,-11.921 8.14,-7.95 12.2,-19.411 12.2,-34.368 V 46.0195 c 0,-14.6093 3.97,-25.2304 11.92,-31.8906 L 3329.71,0.269531 C 3322.69,5.07813 3317.7,10.9883 3314.75,18.0117" /><path
         id="path42"
         style="fill:#96460A;fill-opacity:1;fill-rule:nonzero;stroke:none"
         d="m 3473.61,11.7695 c -7.4,7.8594 -11.1,19.1797 -11.1,33.9688 V 178.262 h 22.74 V 144.43 h 42.7 v -20.508 h -42.7 V 45.7383 c 0,-9.0586 1.89,-15.3477 5.68,-18.8477 3.78,-3.5195 8.28,-5.2812 13.45,-5.2812 3.69,0 6.7,0.3789 9.01,1.1094 2.31,0.7421 5.4,2.1328 9.29,4.1718 L 3533.21,8.30859 C 3525.81,2.76172 3516.3,0 3504.66,0 3491.35,0 3481,3.92188 3473.61,11.7695" /><path
         id="path44"
         style="fill:#96460A;fill-opacity:1;fill-rule:nonzero;stroke:none"
         d="m 3651.59,142.77 22.73,-0.282 V 3.60156 l -22.73,0.26953 z m 0.83,31.332 c -2.96,2.949 -4.44,6.277 -4.44,9.968 0,3.891 1.48,7.309 4.44,10.27 2.96,2.949 6.29,4.43 9.98,4.43 3.88,0 7.35,-1.481 10.4,-4.43 3.04,-2.961 4.57,-6.379 4.57,-10.27 0,-3.691 -1.53,-7.019 -4.57,-9.968 -3.05,-2.961 -6.52,-4.442 -10.4,-4.442 -3.69,0 -7.02,1.481 -9.98,4.442" /><path
         id="path46"
         style="fill:#96460A;fill-opacity:1;fill-rule:nonzero;stroke:none"
         d="m 3797.97,126.551 c -2.96,2.871 -5.92,4.668 -8.87,5.41 l 12.2,18.578 c 11.46,-6.469 20.05,-17.391 25.78,-32.719 l 30.49,-80.6716 39.1,107.5626 h 22.73 L 3867.83,3.60156 H 3847.6 L 3804.62,117.262 c -1.48,3.328 -3.69,6.418 -6.65,9.289" /><path
         id="path48"
         style="fill:#96460A;fill-opacity:1;fill-rule:nonzero;stroke:none"
         d="m 4124.27,85.6602 v 2.7695 c 0,7.2109 -1.62,13.7303 -4.85,19.5503 -3.24,5.809 -7.58,10.399 -13.03,13.719 -5.45,3.332 -11.51,4.992 -18.16,4.992 -9.43,0 -17.6,-3.519 -24.53,-10.543 -6.93,-7.019 -11.52,-17.1871 -13.73,-30.4878 z m -66.13,-51.0118 c 5.65,-8.8671 16.04,-13.3086 31.19,-13.3086 7.95,0 15.34,1.25 22.19,3.7383 6.83,2.5 14.04,6.3321 21.62,11.5 l 10.54,-17.1797 c -6.85,-5.539 -15.26,-10.01949 -25.23,-13.43746 -9.98,-3.42188 -20.06,-5.140627 -30.22,-5.140627 -12.94,0 -24.13,3.007817 -33.55,9.007817 -9.43,6.01167 -16.63,14.23047 -21.62,24.68357 -4.99,10.4297 -7.48,22.3086 -7.48,35.6172 0,13.3125 2.44,25.8711 7.34,37.6991 4.89,11.832 12.1,21.352 21.62,28.563 9.52,7.218 20.84,10.82 33.97,10.82 10.71,0 20.51,-2.59 29.38,-7.77 8.88,-5.171 15.9,-12.339 21.08,-21.48 5.16,-9.152 7.75,-19.2696 7.75,-30.3712 0,-4.6093 -0.37,-12.1015 -1.1,-22.4492 h -96.76 c 0.56,-11.4609 3.65,-21.6289 9.28,-30.4922" /><path
         id="path50"
         style="fill:#96460A;fill-opacity:1;fill-rule:nonzero;stroke:none"
         d="m 4464.16,10.8008 c -9.98,5.9101 -17.7,14.1875 -23.15,24.8203 -5.46,10.6172 -8.18,22.957 -8.18,37.0078 0,14.4102 2.87,27.2109 8.59,38.4021 5.74,11.168 13.77,19.86 24.13,26.047 10.35,6.203 22.18,9.293 35.49,9.293 8.68,0 17.09,-1.699 25.23,-5.121 8.12,-3.43 13.75,-7.629 16.91,-12.621 l -13.59,-15.238 c -4.25,4.609 -8.55,7.839 -12.9,9.687 -4.33,1.852 -9.56,2.781 -15.65,2.781 -14.24,0 -25.47,-4.847 -33.69,-14.558 -8.23,-9.699 -12.34,-22.8713 -12.34,-39.5002 0,-15.3399 4.02,-27.4102 12.06,-36.1797 8.04,-8.7813 19.09,-13.1719 33.13,-13.1719 7.02,0 13.82,1.1524 20.38,3.4727 6.55,2.3086 14.28,6.2383 23.15,11.7773 l 9.42,-17.4687 c -7.76,-5.9102 -16.35,-10.44925 -25.78,-13.58206 -9.42,-3.13672 -18.94,-4.70703 -28.56,-4.70703 -13.12,0 -24.67,2.9375 -34.65,8.85939" /><path
         id="path52"
         style="fill:#96460A;fill-opacity:1;fill-rule:nonzero;stroke:none"
         d="m 4734.33,30.8984 c 6.56,6.2032 9.85,14.1914 9.85,23.9805 v 16.9219 h -24.13 c -13.86,0 -23.88,-1.9922 -30.08,-5.961 -6.19,-3.9804 -9.29,-10.3085 -9.29,-19 0,-7.9414 2.45,-14.1289 7.35,-18.5703 4.9,-4.4297 11.69,-6.6601 20.38,-6.6601 10.72,0 19.36,3.1094 25.92,9.289 z m 14.84,-12.8867 c -4.26,-5.3633 -9.94,-9.52342 -17.06,-12.47264 -7.11,-2.94922 -15.1,-4.4375 -23.98,-4.4375 -15.16,0 -27.3,4.16016 -36.46,12.47654 -9.14,8.3203 -13.71,19.3125 -13.71,32.9922 0,14.418 5.45,25.6406 16.35,33.6914 10.91,8.0274 26.15,12.0469 45.74,12.0469 h 24.13 v 5.832 c 0,10.5274 -1.9,17.9684 -5.69,22.3084 -3.79,4.352 -10.21,6.52 -19.27,6.52 -7.76,0 -15.39,-1.391 -22.87,-4.16 -7.48,-2.77 -14.37,-6.75 -20.66,-11.918 l -11.08,16.91 c 6.65,6.097 14.87,10.91 24.67,14.418 9.8,3.511 19.87,5.261 30.22,5.261 15.34,0 27.08,-3.98 35.21,-11.921 8.13,-7.95 12.2,-19.411 12.2,-34.368 V 46.0195 c 0,-14.6093 3.97,-25.2304 11.92,-31.8906 L 4764.13,0.269531 C 4757.11,5.07813 4752.12,10.9883 4749.17,18.0117" /><path
         id="path54"
         style="fill:#96460A;fill-opacity:1;fill-rule:nonzero;stroke:none"
         d="M 4974.56,144.43 4974,122.531 c -7.39,2.028 -13.4,3.047 -18.02,3.047 -8.69,0 -15.44,-2.039 -20.23,-6.098 -5.56,-4.429 -10.36,-10.351 -14.43,-17.742 V 3.60156 H 4898.6 V 101.738 c 0,14.41 -3.89,24.953 -11.65,31.614 l 15.25,14.128 c 2.77,-1.66 5.58,-4.16 8.45,-7.492 2.87,-3.316 5.22,-7.109 7.07,-11.359 4.06,5.172 8.23,9.152 12.47,11.922 7.03,4.429 15.44,6.66 25.23,6.66 5.36,0 11.74,-0.93 19.14,-2.781" /><path
         id="path56"
         style="fill:#96460A;fill-opacity:1;fill-rule:nonzero;stroke:none"
         d="m 5174.16,85.6602 v 2.7695 c 0,7.2109 -1.62,13.7303 -4.85,19.5503 -3.23,5.809 -7.58,10.399 -13.03,13.719 -5.45,3.332 -11.5,4.992 -18.16,4.992 -9.43,0 -17.6,-3.519 -24.53,-10.543 -6.93,-7.019 -11.52,-17.1871 -13.73,-30.4878 z m -66.13,-51.0118 c 5.65,-8.8671 16.04,-13.3086 31.19,-13.3086 7.96,0 15.34,1.25 22.19,3.7383 6.83,2.5 14.05,6.3321 21.62,11.5 l 10.54,-17.1797 c -6.85,-5.539 -15.26,-10.01949 -25.23,-13.43746 -9.98,-3.42188 -20.06,-5.140627 -30.22,-5.140627 -12.94,0 -24.12,3.007817 -33.54,9.007817 -9.44,6.01167 -16.64,14.23047 -21.63,24.68357 -4.99,10.4297 -7.48,22.3086 -7.48,35.6172 0,13.3125 2.45,25.8711 7.35,37.6991 4.88,11.832 12.09,21.352 21.61,28.563 9.52,7.218 20.84,10.82 33.97,10.82 10.71,0 20.51,-2.59 29.38,-7.77 8.88,-5.171 15.9,-12.339 21.08,-21.48 5.16,-9.152 7.75,-19.2696 7.75,-30.3712 0,-4.6093 -0.36,-12.1015 -1.1,-22.4492 h -96.76 c 0.56,-11.4609 3.65,-21.6289 9.28,-30.4922" /><path
         id="path58"
         style="fill:#96460A;fill-opacity:1;fill-rule:nonzero;stroke:none"
         d="M 1829.53,928.621 C 1533.39,297.719 690.035,722.902 918.258,1349.39 1211.64,1998.11 2063.15,1557.8 1829.53,928.621 Z m -47.45,612.769 C 1513.46,1825.7 992.227,1725.6 848.039,1361.63 642.426,899.848 1142.41,420.719 1598.5,624.879 c 363.36,142.59 468.92,646.591 183.58,916.511" /><path
         id="path60"
         style="fill:#96460A;fill-opacity:1;fill-rule:nonzero;stroke:none"
         d="m 3310.08,577.289 h 77.39 V 1699.04 h -77.39 V 577.289" /><path
         id="path62"
         style="fill:#96460A;fill-opacity:1;fill-rule:nonzero;stroke:none"
         d="m 3777.78,1267.55 c 182.99,115.48 143.17,438.61 434.83,391.57 l 1.61,36.6 c -420.52,46.86 -304.44,-417.59 -584.92,-432.4 v 435.7 h -77.39 V 576.641 h 77.39 c 0,85.679 0,557.769 0,632.549 l 645.53,-631.721 h 94.56 l -662.12,662.121 c 29.42,8.96 56.4,19 70.51,27.96" /><path
         id="path64"
         style="fill:#96460A;fill-opacity:1;fill-rule:nonzero;stroke:none"
         d="m 4774.79,1563.5 c 6.9,-23.16 120.14,-415.87 124.65,-425.79 -103.54,3.11 -188.22,-45.15 -274.13,-96.04 z m 243.05,-498.18 -8.88,29.45 c -0.05,0.14 -5.93,19.66 -5.97,19.78 -1.14,4.08 -176.3,580.67 -177.18,584.47 h -62.64 L 4567.1,1013.07 c -0.02,0 -0.04,-0.01 -0.06,-0.01 -11.42,-40.322 -110.82,-387.919 -124.59,-436.419 h 54.66 l 103.55,375.988 c 114.61,22.891 196.81,126.761 316.92,128.071 1.13,-3.62 158.22,-500.72 159.26,-504.059 h 89.29 l -148.29,488.679" /><path
         id="path66"
         style="fill:#96460A;fill-opacity:1;fill-rule:nonzero;stroke:none"
         d="m 3171.56,1187.09 -1.62,3.25 -3.2,1.73 c -27.76,14.92 -55.62,26.81 -82.85,35.36 -27.83,8.74 -63.88,12.15 -106.59,9.93 -32.6,-1.08 -62.16,-6.91 -87.87,-17.3 -25.15,-10.17 -48.71,-22.1 -70.03,-35.43 -21.15,-13.22 -41.6,-27.74 -60.77,-43.17 -18.44,-14.84 -37.84,-28.55 -57.66,-40.75 -19.62,-12.07 -41.33,-22.27 -64.46,-30.33 -22.73,-7.91 -49.45,-11.91 -79.43,-11.91 -25.42,0 -49.7,5.19 -72.14,15.45 -23.45,10.69 -46.16,23.32 -67.46,37.55 l -9.82,6.56 -19.51,-31.26 8.03,-6.36 c 25.93,-20.55 54.71,-36.72 85.54,-48.08 30.97,-11.4 64.24,-17.18 98.9,-17.18 37.61,0 71.75,4.66 101.46,13.85 29.34,9.05 57.31,20.99 83.08,35.48 25.51,14.36 50.5,30.75 74.26,48.73 23.21,17.54 49.16,35.88 76.66,54.23 14.45,8.67 30.65,14.79 48.11,18.2 17.87,3.47 36.15,5.03 54.77,4.5 18.26,-0.5 36.02,-3.25 52.78,-8.16 14.34,-4.23 27.37,-9.21 38.82,-14.82 -0.83,-63.03 -12.98,-127.18 -36.13,-190.765 -24.06,-66.04 -58.02,-126.45 -100.94,-179.567 -42.82,-53.019 -94.78,-96.957 -154.47,-130.617 -59.16,-33.391 -125.12,-50.32 -196.03,-50.32 -70.12,0 -135.79,14.41 -195.15,42.828 -59.54,28.48 -111.4,67.179 -154.12,114.996 -42.84,47.937 -76.7,103.785 -100.64,165.988 -23.98,62.197 -36.13,127.357 -36.13,193.627 0,66.32 11.9,132.31 35.39,196.14 23.5,63.79 57.13,121.48 99.97,171.48 42.78,49.92 94.69,90.71 154.26,121.25 59.29,30.41 125.38,45.82 196.42,45.82 61.09,0 116.8,-9 165.6,-26.77 45.13,-16.47 90.08,-42.73 133.78,-78.15 l 38.67,35.54 c -25.64,18.65 -50.27,34.89 -73.31,48.36 -25.73,14.99 -52.65,26.95 -80.03,35.55 -27.17,8.52 -56.07,14.74 -85.99,18.5 -29.76,3.7 -62.96,5.58 -98.72,5.58 -80.72,0 -156.46,-15.37 -225.13,-45.7 -68.54,-30.3 -128.61,-71.79 -178.57,-123.35 -49.92,-51.51 -89.79,-112.65 -118.5,-181.71 -28.71,-69.15 -43.25,-144.02 -43.25,-222.54 0,-75.53 15.12,-147.85 44.93,-214.951 29.73,-66.91 70.68,-126.43 121.69,-176.918 51.04,-50.5 111.63,-90.91 180.12,-120.102 68.58,-29.238 142.15,-44.07 218.71,-44.07 79.86,0 154.66,16.492 222.34,49 67.46,32.402 126.46,76.051 175.33,129.727 48.82,53.566 87.57,116.257 115.21,186.359 27.61,70.085 41.59,143.835 41.59,219.205 0,9.07 -1.99,17.67 -5.9,25.51" /><path
         id="path68"
         style="fill:#96460A;fill-opacity:1;fill-rule:nonzero;stroke:none"
         d="M 645.684,835 C 584.988,627.379 244.961,631.648 88.543,631.648 c 0,262.149 0,760.032 0,1018.752 265.012,3.94 447.738,-21.01 340.984,-331.01 C 359.977,1117.42 724.09,1174.55 645.684,835 Z m 26.402,267.81 c -93.551,103.15 -242.367,97.92 -183.008,239.96 157.797,336.14 -88.398,355.88 -356.844,357.28 C 88.3711,1700.28 43.3477,1699.46 0,1700.04 V 576.66 l 280.152,0.031 c 436.84,-1.089 560.789,308.395 391.934,526.119" /></g></g></svg>