<svg width="18" height="18" viewBox="0 0 18 18" fill="none" xmlns="http://www.w3.org/2000/svg">
<path d="M8.99984 0.666992C13.6023 0.666992 17.3332 4.39783 17.3332 9.00033C17.3332 13.6028 13.6023 17.3337 8.99984 17.3337C4.39734 17.3337 0.666504 13.6028 0.666504 9.00033C0.666504 4.39783 4.39734 0.666992 8.99984 0.666992ZM8.99984 2.33366C7.23173 2.33366 5.53603 3.03604 4.28579 4.28628C3.03555 5.53652 2.33317 7.23222 2.33317 9.00033C2.33317 10.7684 3.03555 12.4641 4.28579 13.7144C5.53603 14.9646 7.23173 15.667 8.99984 15.667C10.7679 15.667 12.4636 14.9646 13.7139 13.7144C14.9641 12.4641 15.6665 10.7684 15.6665 9.00033C15.6665 7.23222 14.9641 5.53652 13.7139 4.28628C12.4636 3.03604 10.7679 2.33366 8.99984 2.33366ZM12.3332 8.16699C12.5456 8.16723 12.7499 8.24856 12.9043 8.39437C13.0588 8.54017 13.1517 8.73945 13.1641 8.95149C13.1766 9.16352 13.1076 9.37231 12.9713 9.53519C12.835 9.69806 12.6416 9.80274 12.4307 9.82783L12.3332 9.83366H5.6665C5.4541 9.83342 5.24981 9.75209 5.09536 9.60629C4.94092 9.46048 4.84797 9.2612 4.83553 9.04916C4.82308 8.83713 4.89207 8.62834 5.02839 8.46547C5.16472 8.30259 5.35809 8.19791 5.569 8.17283L5.6665 8.16699H12.3332Z" fill="#BB8B67"/>
</svg>
