<svg width="60" height="52" viewBox="0 0 60 52" fill="none" xmlns="http://www.w3.org/2000/svg">
<path d="M37.9748 10.7308C37.1247 8.32314 34.2912 7.42027 32.5911 9.226C32.3077 9.52695 32.3077 9.82791 32.3077 10.1289C32.5911 11.0317 32.8744 12.2355 32.8744 13.4394C32.8744 13.7403 32.8744 14.0413 32.8744 14.3422C32.8744 14.6432 32.8744 14.9441 33.1578 14.9441C34.2912 15.546 35.7079 15.546 36.8414 14.6432C37.9748 13.7403 38.2581 11.9346 37.9748 10.7308ZM34.8579 13.1384C34.2912 13.1384 33.7245 12.5365 33.7245 11.9346C33.7245 11.3327 34.2912 10.7308 34.8579 10.7308C35.4246 10.7308 35.9913 11.3327 35.9913 11.9346C35.9913 12.5365 35.4246 13.1384 34.8579 13.1384Z" fill="#96460A"/>
<path d="M39.2308 29.4761C39.2308 29.7541 38.9602 30.0322 38.9602 30.3103C37.6075 32.813 35.7136 35.0376 33.5491 36.706C33.008 37.2622 32.4669 37.5402 31.6552 37.8183C31.3846 37.8183 31.3847 38.0964 31.3847 38.0964V38.3745C31.3847 38.9306 30.8435 39.4868 30.573 39.7648C29.2202 40.8771 27.5969 41.4333 25.9735 41.9894C24.6207 42.2675 23.2679 42.5456 21.9152 42.5456C21.374 42.5456 20.8329 42.5456 20.5624 42.2675C20.2918 42.2675 20.2918 41.9894 20.0213 41.9894C19.4801 41.7114 19.4801 41.4333 20.0213 41.1552C21.6446 39.7648 23.5385 38.6525 25.1618 37.2622C25.1618 37.2622 25.1618 36.9841 25.4324 37.2622V37.5402C25.1618 38.0964 24.8913 38.9306 24.6207 39.4868C24.6207 39.7648 24.3502 39.7648 24.3502 39.7648C23.8091 40.0429 23.5385 40.321 22.9974 40.5991C22.9974 40.5991 22.7268 40.5991 22.7268 40.8771C23.2679 40.8771 23.8091 40.8771 24.0796 40.5991C25.4324 40.321 26.7852 40.0429 27.8674 39.4868C28.138 39.2087 28.4085 39.2087 28.6791 38.9306C29.2202 38.6525 29.4907 38.0964 29.7613 37.5402C29.7613 37.2622 29.7613 36.706 30.0319 36.4279C30.3024 36.1499 30.8435 36.1499 31.1141 36.1499C32.7374 35.5937 34.0902 34.4814 35.443 33.3691C36.7958 31.9787 37.6075 30.5884 38.4191 28.9199C38.4191 28.6418 38.6897 28.6418 38.6897 28.3638C38.9602 28.6418 39.2308 28.9199 39.2308 29.4761Z" fill="#96460A"/>
<path d="M59.2878 9.00637C58.1912 5.65621 55.998 3.1436 52.9825 1.46852C51.3376 0.630982 49.6928 0.351802 47.7738 0.0726229C45.0323 -0.206557 42.565 0.351801 40.0978 1.18934C38.7271 1.46852 37.3563 2.02688 35.9856 2.58524C35.4373 2.86442 34.889 3.1436 34.6149 3.42278C33.7925 3.70196 32.9701 4.26032 32.4218 4.5395C31.3252 5.37703 29.9545 6.21457 28.8579 7.05211C28.5838 7.05211 28.5838 7.05211 28.5838 7.05211C28.0355 6.49375 27.4872 6.21457 26.6648 5.65621C25.2941 4.53949 23.6492 3.70196 22.0043 2.86442C20.3595 2.02688 18.4405 1.46852 16.7956 1.18934C14.8766 0.91016 12.9576 0.910164 11.0386 0.910164C10.4903 0.910164 9.94206 1.18934 9.11963 1.46852C7.20063 2.02688 5.55577 2.86442 4.18506 3.98113C2.81435 5.37703 1.71777 7.05211 0.895347 9.00637C0.347061 10.9606 -0.201225 12.9149 0.0729182 14.3108C0.0729182 18.2193 0.621204 21.0111 1.71777 24.0821C2.26606 25.478 2.81435 26.8739 3.36263 28.2698C3.91092 29.3865 4.4592 30.5032 5.00749 31.6199C5.55577 32.7366 6.3782 33.8533 7.20063 34.9701C7.74892 35.8076 8.2972 36.6451 8.84549 37.4827C9.66792 38.5994 10.7645 39.7161 11.5869 40.8328C12.4093 41.6704 12.9576 42.2287 13.7801 43.0663C14.6025 43.9038 15.4249 44.4622 16.2473 45.2997C16.7956 45.858 17.6181 46.1372 18.1663 46.6956C18.9888 47.2539 19.8112 47.8123 20.6336 48.3707C21.4561 48.929 22.0043 49.2082 22.8268 49.7666C24.4716 50.6041 25.8423 51.1625 27.4872 51.7208C28.0355 52 28.5838 52 29.1321 52C30.7769 51.4416 32.6959 51.1625 34.3408 50.3249C35.7115 49.7666 36.8081 49.2082 37.9046 48.6498C39.2753 47.8123 40.3719 47.254 41.4685 46.4164C43.1133 45.2997 44.484 44.183 45.8548 42.7871C47.4996 41.112 49.4186 39.4369 50.7893 37.4827C52.9825 34.6909 54.9015 31.8991 56.2722 28.8281C58.1912 24.9196 59.5619 20.7319 59.836 16.265C60.1102 13.4732 60.1102 11.2398 59.2878 9.00637ZM56.8205 23.5237C55.7239 27.153 53.8049 30.5032 51.6118 33.8533C50.5152 35.5284 49.1445 37.2035 47.4996 38.8786C46.403 40.2745 45.0323 41.3912 43.6616 42.7871C42.565 43.6246 41.4685 44.7413 40.3719 45.5789C38.727 46.6956 37.0822 47.8123 35.4373 48.6498C34.0666 49.2082 32.6959 49.7666 31.3252 50.3249C29.9545 50.8833 28.8579 50.6041 27.4872 50.6041C26.6648 50.6041 26.1165 50.0457 25.5682 49.7666C23.9233 48.929 22.5526 48.0915 21.1819 46.9748C20.3595 46.4164 19.2629 45.5789 18.4405 45.0205L18.1663 44.7413C18.9888 44.7413 19.5371 44.4622 20.0853 43.9038C19.5371 43.6246 19.2629 43.3454 18.7146 43.0663H18.4405C18.1663 43.0663 17.6181 43.0663 17.3439 43.0663C17.6181 42.7871 17.6181 42.7871 17.6181 42.7871C18.7146 41.9495 19.8112 41.112 20.9078 40.2745C21.7302 39.7161 22.0043 38.5994 22.2785 37.7618C22.0043 37.7618 22.0043 38.041 22.0043 38.041C20.0853 39.7161 18.1663 41.112 16.2473 42.7871C15.9732 43.0663 15.9732 43.0663 15.4249 42.7871C14.3283 41.6704 13.2318 40.5536 12.1352 39.4369C10.4903 37.7619 9.66792 36.366 8.57134 35.2492C7.20063 33.295 5.82992 31.0615 4.73335 29.1073C3.08849 26.0363 1.71777 22.6862 1.16949 19.0568C0.621204 16.5442 0.621204 14.0316 1.16949 11.519C1.71777 9.56472 2.5402 7.61047 3.91092 6.21457C5.00749 5.09786 6.3782 4.26032 7.74892 3.70196C9.94206 2.86442 12.1352 2.58524 14.3283 2.86442C15.1508 2.86442 15.6991 3.1436 16.5215 3.1436C17.8922 3.42278 18.9888 3.70196 20.3595 4.26031C22.2785 5.09785 23.9233 5.93539 25.5682 6.77293C26.6648 7.33129 27.4872 7.88965 28.3096 8.72719C28.5838 9.00637 28.5838 9.00637 28.3096 9.28555C27.4872 10.6814 26.9389 12.0773 26.1165 13.1941C25.8423 13.1941 25.8423 12.9149 25.8423 12.9149C25.8423 12.6357 25.5682 12.3565 25.2941 12.0773C25.0199 11.7982 24.7458 11.7982 24.4716 11.7982C24.1975 11.7982 24.1975 11.7982 23.9233 12.0773C23.3751 14.8691 22.5526 17.9401 21.4561 20.4527C21.1819 21.0111 20.9078 21.8486 20.3595 22.407C20.0853 22.6862 20.0853 22.9653 20.0853 23.2445C20.0853 23.5237 19.8112 23.8029 19.5371 23.8029C18.9888 23.8029 18.4405 24.0821 17.8922 24.0821C15.9732 24.9196 14.8766 26.3155 14.3283 28.2698C14.0542 28.8281 14.0542 29.6656 13.7801 30.5032C13.7801 30.7824 13.5059 31.3407 13.5059 31.6199C13.5059 31.8991 13.2318 32.1783 13.2318 32.1783C12.9576 32.4574 12.9576 32.7366 12.9576 33.295C13.2318 34.1325 13.5059 34.4117 14.0542 34.9701C14.8766 35.5284 15.6991 35.8076 16.5215 36.0868C16.5215 36.0868 16.5215 36.0868 16.7956 36.0868C17.6181 36.366 18.1663 36.366 18.9888 36.0868C20.0853 35.5284 21.4561 35.2492 22.5526 34.6909C22.5526 34.6909 22.8268 34.6909 23.1009 34.4117C22.8268 34.1325 22.5526 34.1325 22.0043 34.4117C20.9078 35.2492 19.8112 35.5284 18.4405 35.2492C17.6181 35.2492 17.0698 34.9701 16.2473 34.6909C15.6991 34.4117 15.1508 34.1325 14.8766 33.5742C14.6025 33.295 14.6025 33.0158 14.8766 32.7366L15.1508 32.4574C15.4249 31.6199 15.6991 30.7824 15.6991 29.9448C15.9732 29.1073 15.9732 28.5489 16.5215 27.7114C16.7956 27.153 17.3439 26.5947 17.8922 26.3155C18.9888 26.0363 19.8112 25.478 20.9078 25.478C21.1819 25.478 21.4561 25.478 21.7302 25.478C22.0043 25.478 22.0043 25.478 22.0043 25.1988C22.0043 25.1988 22.0043 24.9196 22.2785 24.9196C24.1975 21.2903 26.1165 17.6609 28.0355 14.0316C28.0355 13.7524 28.0355 13.7524 28.3096 13.4732C28.5838 14.0316 28.5838 14.8691 28.5838 15.4275C28.5838 16.8234 28.3096 17.9401 28.0355 19.336C27.4872 20.7319 26.6648 22.1278 25.8423 23.2445C25.5682 23.5237 25.2941 23.8029 25.0199 24.0821L24.7458 24.3612C24.1975 24.9196 24.1975 25.478 24.4716 26.0363C25.0199 26.8739 25.5682 27.9906 25.5682 29.1073C25.5682 29.3865 25.5682 29.6656 25.5682 29.9448C25.5682 30.224 25.5682 30.224 25.8423 30.224C26.3906 30.224 26.6648 29.6656 26.6648 29.3865C26.6648 28.8281 26.6648 27.9906 26.3906 27.4322C26.3906 27.153 26.1165 27.153 26.1165 26.8739C26.1165 26.5947 26.3906 26.5947 26.6648 26.5947C28.0355 25.7571 29.1321 24.9196 29.9545 23.8029C30.2286 23.5237 30.2286 23.2445 30.2286 23.2445C30.5028 22.1278 30.7769 21.2903 31.3252 20.4527C33.2442 17.3818 36.5339 15.9859 39.8236 17.1026C40.9202 17.3818 42.0168 17.9401 43.1133 18.7776C43.3875 19.0568 43.3875 19.0568 43.6616 18.7776C43.9358 18.2193 44.484 17.6609 44.7582 17.3818C44.7582 17.1026 45.0323 17.1026 45.3065 17.1026C48.0479 17.1026 50.5152 17.1026 53.2566 17.1026C53.2566 17.3818 52.9825 17.3818 52.7083 17.3818C51.6118 17.9401 50.5152 18.4985 49.4186 18.4985C49.6928 18.4985 48.8703 18.4985 47.7738 18.4985C47.4996 18.4985 47.4996 18.4985 47.2255 18.7776C46.6772 19.336 46.1289 19.8944 45.5806 20.4527C45.5806 20.4527 45.3065 20.7319 45.3065 21.0111C45.0323 22.6862 43.9358 24.0821 42.565 25.1988C40.9202 26.5947 38.7271 27.153 36.5339 27.153C36.2598 27.153 36.2598 27.153 35.9856 27.153C36.2598 27.4322 36.5339 27.7114 36.808 27.7114C37.3563 27.9906 38.1788 27.9906 38.7271 27.9906C40.9202 27.9906 42.565 27.153 44.2099 25.7571C45.5806 24.6404 46.6772 22.9653 46.9513 21.0111V20.7319C47.4996 20.7319 48.322 20.7319 48.8703 20.7319C50.5152 20.4527 52.16 20.1735 53.8049 19.336C54.3532 19.0568 55.1756 18.4985 55.7239 17.9401C56.2722 17.3817 56.5463 16.8234 56.5463 16.265C56.5463 15.7067 56.5463 15.7067 56.2722 15.7067C53.5308 15.7067 51.0635 15.7067 48.322 15.4275C47.2255 15.4275 45.8548 15.4275 44.7582 15.4275C44.484 15.4275 44.2099 15.4275 43.9358 15.9859C43.6616 16.265 43.3875 16.5442 43.1133 16.8234C42.8392 17.1026 42.8392 17.1026 42.2909 17.1026C41.1943 16.5442 40.0978 15.9859 39.0012 15.7067C35.7115 15.1483 33.2442 16.265 31.3252 18.7776C31.0511 19.336 30.7769 19.8944 30.2286 20.4527C30.5028 19.0568 30.7769 17.9401 30.7769 16.5442C30.7769 14.59 30.7769 12.9149 30.2286 10.9606C29.9545 10.1231 29.6803 9.28555 28.8579 9.00637C29.1321 8.44801 29.6803 8.16883 30.2286 7.61047C31.0511 7.05211 31.8735 6.49375 32.6959 5.93539C34.6149 4.81867 36.2598 3.98114 38.1788 3.42278C39.0012 3.1436 39.8236 2.86442 40.646 2.86442C42.8392 2.58524 45.0323 2.30606 47.2255 2.86442C48.8703 3.1436 50.5152 3.70196 52.16 4.81868C53.8049 5.93539 55.1756 7.61047 55.998 9.56472C56.8205 11.2398 57.0946 13.1941 57.0946 15.1483C58.1912 17.6609 57.6429 20.7319 56.8205 23.5237Z" fill="#96460A"/>
<path d="M37.9748 10.7308C37.1247 8.32314 34.2912 7.42027 32.5911 9.226C32.3077 9.52695 32.3077 9.82791 32.3077 10.1289C32.5911 11.0317 32.8744 12.2355 32.8744 13.4394C32.8744 13.7403 32.8744 14.0413 32.8744 14.3422C32.8744 14.6432 32.8744 14.9441 33.1578 14.9441C34.2912 15.546 35.7079 15.546 36.8414 14.6432C37.9748 13.7403 38.2581 11.9346 37.9748 10.7308ZM34.8579 13.1384C34.2912 13.1384 33.7245 12.5365 33.7245 11.9346C33.7245 11.3327 34.2912 10.7308 34.8579 10.7308C35.4246 10.7308 35.9913 11.3327 35.9913 11.9346C35.9913 12.5365 35.4246 13.1384 34.8579 13.1384Z" fill="#96460A"/>
<path d="M39.2308 29.4761C39.2308 29.7541 38.9602 30.0322 38.9602 30.3103C37.6075 32.813 35.7136 35.0376 33.5491 36.706C33.008 37.2622 32.4669 37.5402 31.6552 37.8183C31.3846 37.8183 31.3847 38.0964 31.3847 38.0964V38.3745C31.3847 38.9306 30.8435 39.4868 30.573 39.7648C29.2202 40.8771 27.5969 41.4333 25.9735 41.9894C24.6207 42.2675 23.2679 42.5456 21.9152 42.5456C21.374 42.5456 20.8329 42.5456 20.5624 42.2675C20.2918 42.2675 20.2918 41.9894 20.0213 41.9894C19.4801 41.7114 19.4801 41.4333 20.0213 41.1552C21.6446 39.7648 23.5385 38.6525 25.1618 37.2622C25.1618 37.2622 25.1618 36.9841 25.4324 37.2622V37.5402C25.1618 38.0964 24.8913 38.9306 24.6207 39.4868C24.6207 39.7648 24.3502 39.7648 24.3502 39.7648C23.8091 40.0429 23.5385 40.321 22.9974 40.5991C22.9974 40.5991 22.7268 40.5991 22.7268 40.8771C23.2679 40.8771 23.8091 40.8771 24.0796 40.5991C25.4324 40.321 26.7852 40.0429 27.8674 39.4868C28.138 39.2087 28.4085 39.2087 28.6791 38.9306C29.2202 38.6525 29.4907 38.0964 29.7613 37.5402C29.7613 37.2622 29.7613 36.706 30.0319 36.4279C30.3024 36.1499 30.8435 36.1499 31.1141 36.1499C32.7374 35.5937 34.0902 34.4814 35.443 33.3691C36.7958 31.9787 37.6075 30.5884 38.4191 28.9199C38.4191 28.6418 38.6897 28.6418 38.6897 28.3638C38.9602 28.6418 39.2308 28.9199 39.2308 29.4761Z" fill="#96460A"/>
<path d="M59.2878 9.00637C58.1912 5.65621 55.998 3.1436 52.9825 1.46852C51.3376 0.630982 49.6928 0.351802 47.7738 0.0726229C45.0323 -0.206557 42.565 0.351801 40.0978 1.18934C38.7271 1.46852 37.3563 2.02688 35.9856 2.58524C35.4373 2.86442 34.889 3.1436 34.6149 3.42278C33.7925 3.70196 32.9701 4.26032 32.4218 4.5395C31.3252 5.37703 29.9545 6.21457 28.8579 7.05211C28.5838 7.05211 28.5838 7.05211 28.5838 7.05211C28.0355 6.49375 27.4872 6.21457 26.6648 5.65621C25.2941 4.53949 23.6492 3.70196 22.0043 2.86442C20.3595 2.02688 18.4405 1.46852 16.7956 1.18934C14.8766 0.91016 12.9576 0.910164 11.0386 0.910164C10.4903 0.910164 9.94206 1.18934 9.11963 1.46852C7.20063 2.02688 5.55577 2.86442 4.18506 3.98113C2.81435 5.37703 1.71777 7.05211 0.895347 9.00637C0.347061 10.9606 -0.201225 12.9149 0.0729182 14.3108C0.0729182 18.2193 0.621204 21.0111 1.71777 24.0821C2.26606 25.478 2.81435 26.8739 3.36263 28.2698C3.91092 29.3865 4.4592 30.5032 5.00749 31.6199C5.55577 32.7366 6.3782 33.8533 7.20063 34.9701C7.74892 35.8076 8.2972 36.6451 8.84549 37.4827C9.66792 38.5994 10.7645 39.7161 11.5869 40.8328C12.4093 41.6704 12.9576 42.2287 13.7801 43.0663C14.6025 43.9038 15.4249 44.4622 16.2473 45.2997C16.7956 45.858 17.6181 46.1372 18.1663 46.6956C18.9888 47.2539 19.8112 47.8123 20.6336 48.3707C21.4561 48.929 22.0043 49.2082 22.8268 49.7666C24.4716 50.6041 25.8423 51.1625 27.4872 51.7208C28.0355 52 28.5838 52 29.1321 52C30.7769 51.4416 32.6959 51.1625 34.3408 50.3249C35.7115 49.7666 36.8081 49.2082 37.9046 48.6498C39.2753 47.8123 40.3719 47.254 41.4685 46.4164C43.1133 45.2997 44.484 44.183 45.8548 42.7871C47.4996 41.112 49.4186 39.4369 50.7893 37.4827C52.9825 34.6909 54.9015 31.8991 56.2722 28.8281C58.1912 24.9196 59.5619 20.7319 59.836 16.265C60.1102 13.4732 60.1102 11.2398 59.2878 9.00637ZM56.8205 23.5237C55.7239 27.153 53.8049 30.5032 51.6118 33.8533C50.5152 35.5284 49.1445 37.2035 47.4996 38.8786C46.403 40.2745 45.0323 41.3912 43.6616 42.7871C42.565 43.6246 41.4685 44.7413 40.3719 45.5789C38.727 46.6956 37.0822 47.8123 35.4373 48.6498C34.0666 49.2082 32.6959 49.7666 31.3252 50.3249C29.9545 50.8833 28.8579 50.6041 27.4872 50.6041C26.6648 50.6041 26.1165 50.0457 25.5682 49.7666C23.9233 48.929 22.5526 48.0915 21.1819 46.9748C20.3595 46.4164 19.2629 45.5789 18.4405 45.0205L18.1663 44.7413C18.9888 44.7413 19.5371 44.4622 20.0853 43.9038C19.5371 43.6246 19.2629 43.3454 18.7146 43.0663H18.4405C18.1663 43.0663 17.6181 43.0663 17.3439 43.0663C17.6181 42.7871 17.6181 42.7871 17.6181 42.7871C18.7146 41.9495 19.8112 41.112 20.9078 40.2745C21.7302 39.7161 22.0043 38.5994 22.2785 37.7618C22.0043 37.7618 22.0043 38.041 22.0043 38.041C20.0853 39.7161 18.1663 41.112 16.2473 42.7871C15.9732 43.0663 15.9732 43.0663 15.4249 42.7871C14.3283 41.6704 13.2318 40.5536 12.1352 39.4369C10.4903 37.7619 9.66792 36.366 8.57134 35.2492C7.20063 33.295 5.82992 31.0615 4.73335 29.1073C3.08849 26.0363 1.71777 22.6862 1.16949 19.0568C0.621204 16.5442 0.621204 14.0316 1.16949 11.519C1.71777 9.56472 2.5402 7.61047 3.91092 6.21457C5.00749 5.09786 6.3782 4.26032 7.74892 3.70196C9.94206 2.86442 12.1352 2.58524 14.3283 2.86442C15.1508 2.86442 15.6991 3.1436 16.5215 3.1436C17.8922 3.42278 18.9888 3.70196 20.3595 4.26031C22.2785 5.09785 23.9233 5.93539 25.5682 6.77293C26.6648 7.33129 27.4872 7.88965 28.3096 8.72719C28.5838 9.00637 28.5838 9.00637 28.3096 9.28555C27.4872 10.6814 26.9389 12.0773 26.1165 13.1941C25.8423 13.1941 25.8423 12.9149 25.8423 12.9149C25.8423 12.6357 25.5682 12.3565 25.2941 12.0773C25.0199 11.7982 24.7458 11.7982 24.4716 11.7982C24.1975 11.7982 24.1975 11.7982 23.9233 12.0773C23.3751 14.8691 22.5526 17.9401 21.4561 20.4527C21.1819 21.0111 20.9078 21.8486 20.3595 22.407C20.0853 22.6862 20.0853 22.9653 20.0853 23.2445C20.0853 23.5237 19.8112 23.8029 19.5371 23.8029C18.9888 23.8029 18.4405 24.0821 17.8922 24.0821C15.9732 24.9196 14.8766 26.3155 14.3283 28.2698C14.0542 28.8281 14.0542 29.6656 13.7801 30.5032C13.7801 30.7824 13.5059 31.3407 13.5059 31.6199C13.5059 31.8991 13.2318 32.1783 13.2318 32.1783C12.9576 32.4574 12.9576 32.7366 12.9576 33.295C13.2318 34.1325 13.5059 34.4117 14.0542 34.9701C14.8766 35.5284 15.6991 35.8076 16.5215 36.0868C16.5215 36.0868 16.5215 36.0868 16.7956 36.0868C17.6181 36.366 18.1663 36.366 18.9888 36.0868C20.0853 35.5284 21.4561 35.2492 22.5526 34.6909C22.5526 34.6909 22.8268 34.6909 23.1009 34.4117C22.8268 34.1325 22.5526 34.1325 22.0043 34.4117C20.9078 35.2492 19.8112 35.5284 18.4405 35.2492C17.6181 35.2492 17.0698 34.9701 16.2473 34.6909C15.6991 34.4117 15.1508 34.1325 14.8766 33.5742C14.6025 33.295 14.6025 33.0158 14.8766 32.7366L15.1508 32.4574C15.4249 31.6199 15.6991 30.7824 15.6991 29.9448C15.9732 29.1073 15.9732 28.5489 16.5215 27.7114C16.7956 27.153 17.3439 26.5947 17.8922 26.3155C18.9888 26.0363 19.8112 25.478 20.9078 25.478C21.1819 25.478 21.4561 25.478 21.7302 25.478C22.0043 25.478 22.0043 25.478 22.0043 25.1988C22.0043 25.1988 22.0043 24.9196 22.2785 24.9196C24.1975 21.2903 26.1165 17.6609 28.0355 14.0316C28.0355 13.7524 28.0355 13.7524 28.3096 13.4732C28.5838 14.0316 28.5838 14.8691 28.5838 15.4275C28.5838 16.8234 28.3096 17.9401 28.0355 19.336C27.4872 20.7319 26.6648 22.1278 25.8423 23.2445C25.5682 23.5237 25.2941 23.8029 25.0199 24.0821L24.7458 24.3612C24.1975 24.9196 24.1975 25.478 24.4716 26.0363C25.0199 26.8739 25.5682 27.9906 25.5682 29.1073C25.5682 29.3865 25.5682 29.6656 25.5682 29.9448C25.5682 30.224 25.5682 30.224 25.8423 30.224C26.3906 30.224 26.6648 29.6656 26.6648 29.3865C26.6648 28.8281 26.6648 27.9906 26.3906 27.4322C26.3906 27.153 26.1165 27.153 26.1165 26.8739C26.1165 26.5947 26.3906 26.5947 26.6648 26.5947C28.0355 25.7571 29.1321 24.9196 29.9545 23.8029C30.2286 23.5237 30.2286 23.2445 30.2286 23.2445C30.5028 22.1278 30.7769 21.2903 31.3252 20.4527C33.2442 17.3818 36.5339 15.9859 39.8236 17.1026C40.9202 17.3818 42.0168 17.9401 43.1133 18.7776C43.3875 19.0568 43.3875 19.0568 43.6616 18.7776C43.9358 18.2193 44.484 17.6609 44.7582 17.3818C44.7582 17.1026 45.0323 17.1026 45.3065 17.1026C48.0479 17.1026 50.5152 17.1026 53.2566 17.1026C53.2566 17.3818 52.9825 17.3818 52.7083 17.3818C51.6118 17.9401 50.5152 18.4985 49.4186 18.4985C49.6928 18.4985 48.8703 18.4985 47.7738 18.4985C47.4996 18.4985 47.4996 18.4985 47.2255 18.7776C46.6772 19.336 46.1289 19.8944 45.5806 20.4527C45.5806 20.4527 45.3065 20.7319 45.3065 21.0111C45.0323 22.6862 43.9358 24.0821 42.565 25.1988C40.9202 26.5947 38.7271 27.153 36.5339 27.153C36.2598 27.153 36.2598 27.153 35.9856 27.153C36.2598 27.4322 36.5339 27.7114 36.808 27.7114C37.3563 27.9906 38.1788 27.9906 38.7271 27.9906C40.9202 27.9906 42.565 27.153 44.2099 25.7571C45.5806 24.6404 46.6772 22.9653 46.9513 21.0111V20.7319C47.4996 20.7319 48.322 20.7319 48.8703 20.7319C50.5152 20.4527 52.16 20.1735 53.8049 19.336C54.3532 19.0568 55.1756 18.4985 55.7239 17.9401C56.2722 17.3817 56.5463 16.8234 56.5463 16.265C56.5463 15.7067 56.5463 15.7067 56.2722 15.7067C53.5308 15.7067 51.0635 15.7067 48.322 15.4275C47.2255 15.4275 45.8548 15.4275 44.7582 15.4275C44.484 15.4275 44.2099 15.4275 43.9358 15.9859C43.6616 16.265 43.3875 16.5442 43.1133 16.8234C42.8392 17.1026 42.8392 17.1026 42.2909 17.1026C41.1943 16.5442 40.0978 15.9859 39.0012 15.7067C35.7115 15.1483 33.2442 16.265 31.3252 18.7776C31.0511 19.336 30.7769 19.8944 30.2286 20.4527C30.5028 19.0568 30.7769 17.9401 30.7769 16.5442C30.7769 14.59 30.7769 12.9149 30.2286 10.9606C29.9545 10.1231 29.6803 9.28555 28.8579 9.00637C29.1321 8.44801 29.6803 8.16883 30.2286 7.61047C31.0511 7.05211 31.8735 6.49375 32.6959 5.93539C34.6149 4.81867 36.2598 3.98114 38.1788 3.42278C39.0012 3.1436 39.8236 2.86442 40.646 2.86442C42.8392 2.58524 45.0323 2.30606 47.2255 2.86442C48.8703 3.1436 50.5152 3.70196 52.16 4.81868C53.8049 5.93539 55.1756 7.61047 55.998 9.56472C56.8205 11.2398 57.0946 13.1941 57.0946 15.1483C58.1912 17.6609 57.6429 20.7319 56.8205 23.5237Z" fill="#96460A"/>
<path d="M37.6304 10.9606C36.808 8.7272 34.0665 7.88966 32.4217 9.56474C32.1475 9.84392 32.1475 10.1231 32.1475 10.4023C32.4217 11.2398 32.6958 12.3565 32.6958 13.4733C32.6958 13.7524 32.6958 14.0316 32.6958 14.3108C32.6958 14.59 32.6958 14.8692 32.97 14.8692C34.0665 15.4275 35.4373 15.4275 36.5338 14.59C37.6304 13.7524 37.9045 12.0774 37.6304 10.9606ZM34.6148 13.1941C34.0665 13.1941 33.5183 12.6357 33.5183 12.0774C33.5183 11.519 34.0665 10.9606 34.6148 10.9606C35.1631 10.9606 35.7114 11.519 35.7114 12.0774C35.7114 12.6357 35.1631 13.1941 34.6148 13.1941Z" fill="#96460A"/>
<path d="M39.8238 29.6658C39.8238 29.945 39.5496 30.2241 39.5496 30.5033C38.1789 33.0159 36.2599 35.2494 34.0668 36.9245C33.5185 37.4828 32.9702 37.762 32.1478 38.0412C31.8736 38.0412 31.8736 38.3204 31.8736 38.3204V38.5995C31.8736 39.1579 31.3253 39.7163 31.0512 39.9954C29.6805 41.1121 28.0356 41.6705 26.3908 42.2289C25.0201 42.508 23.6493 42.7872 22.2786 42.7872C21.7303 42.7872 21.1821 42.7872 20.9079 42.508C20.6338 42.508 20.6338 42.2289 20.3596 42.2289C19.8113 41.9497 19.8113 41.6705 20.3596 41.3913C22.0045 39.9954 23.9235 38.8787 25.5683 37.4828C25.5683 37.4828 25.5683 37.2036 25.8425 37.4828V37.762C25.5683 38.3204 25.2942 39.1579 25.0201 39.7162C25.0201 39.9954 24.7459 39.9954 24.7459 39.9954C24.1976 40.2746 23.9235 40.5538 23.3752 40.833C23.3752 40.833 23.1011 40.833 23.1011 41.1121C23.6493 41.1121 24.1976 41.1121 24.4718 40.833C25.8425 40.5538 27.2132 40.2746 28.3098 39.7162C28.5839 39.4371 28.8581 39.4371 29.1322 39.1579C29.6805 38.8787 29.9546 38.3204 30.2288 37.762C30.2288 37.4828 30.2288 36.9245 30.5029 36.6453C30.7771 36.3661 31.3253 36.3661 31.5995 36.3661C33.2443 35.8077 34.615 34.691 35.9858 33.5743C37.3565 32.1784 38.1789 30.7825 39.0013 29.1074C39.0013 28.8282 39.2755 28.8283 39.2755 28.5491C39.5496 28.8283 39.8238 29.1074 39.8238 29.6658Z" fill="#96460A"/>
<path d="M57.3685 9.844C57.0944 9.56482 57.0944 9.56482 57.0944 9.28564C57.3685 9.56482 57.3685 9.56482 57.3685 9.844Z" fill="#96460A"/>
<path d="M57.643 10.9605C57.643 10.9605 57.3689 10.6813 57.643 10.6813C57.643 10.4021 57.643 10.6813 57.643 10.9605C57.9172 10.6813 57.643 10.6813 57.643 10.9605Z" fill="#96460A"/>
<path d="M39.8238 29.6654C39.8238 29.9446 39.5496 30.2238 39.5496 30.503C38.1789 33.0156 36.2599 35.249 34.0668 36.9241C33.5185 37.4825 32.9702 37.7616 32.1478 38.0408C31.8736 38.0408 31.8736 38.32 31.8736 38.32V38.5992C31.8736 39.1575 31.3253 39.7159 31.0512 39.9951C29.6805 41.1118 28.0356 41.6701 26.3908 42.2285C25.0201 42.5077 23.6493 42.7869 22.2786 42.7869C21.7303 42.7869 21.1821 42.7869 20.9079 42.5077C20.6338 42.5077 20.6338 42.2285 20.3596 42.2285C19.8113 41.9493 19.8113 41.6701 20.3596 41.391C22.0045 39.9951 23.9235 38.8783 25.5683 37.4825C25.5683 37.4825 25.8425 37.4825 25.5683 37.4825C25.2942 38.0408 25.0201 38.8783 24.7459 39.4367C24.7459 39.7159 24.4718 39.7159 24.4718 39.7159C23.9235 39.9951 23.6493 40.2742 23.1011 40.5534C23.1011 40.5534 22.8269 40.5534 22.8269 40.8326C23.3752 40.8326 23.9235 40.8326 24.1976 40.5534C25.5683 40.2742 26.9391 39.9951 28.0356 39.4367C28.3098 39.1575 28.5839 39.1575 28.8581 38.8783C29.4063 38.5992 29.6805 38.0408 29.9546 37.4825C29.9546 37.2033 29.9546 36.6449 30.2288 36.3657C30.5029 36.0866 31.0512 36.0866 31.3253 36.0866C32.9702 35.5282 34.3409 34.4115 35.7116 33.2948C37.0823 31.8989 37.9048 30.503 38.7272 28.8279C38.7272 28.5487 39.0013 28.5487 39.0013 28.2695C39.5496 28.8279 39.8238 29.1071 39.8238 29.6654Z" fill="#96460A"/>
<path d="M37.6304 10.9606C36.808 8.7272 34.0665 7.88966 32.4217 9.56474C32.1475 9.84392 32.1475 10.1231 32.1475 10.4023C32.4217 11.2398 32.6958 12.3565 32.6958 13.4733C32.6958 13.7524 32.6958 14.0316 32.6958 14.3108C32.6958 14.59 32.6958 14.8692 32.97 14.8692C34.0665 15.4275 35.4373 15.4275 36.5338 14.59C37.6304 13.7524 37.9045 12.0774 37.6304 10.9606ZM34.6148 13.1941C34.0665 13.1941 33.5183 12.6357 33.5183 12.0774C33.5183 11.519 34.0665 10.9606 34.6148 10.9606C35.1631 10.9606 35.7114 11.519 35.7114 12.0774C35.7114 12.6357 35.1631 13.1941 34.6148 13.1941Z" fill="#96460A"/>
<path d="M25.2939 37.4832C25.2939 37.2024 25.2939 37.4832 25.2939 37.4832C25.2939 37.4832 25.5681 37.4832 25.2939 37.4832Z" fill="#96460A"/>
</svg>
