<svg width="39" height="56" viewBox="0 0 39 56" fill="none" xmlns="http://www.w3.org/2000/svg">
<path d="M29.5 33.0229H9.5C9.73529 32.7837 9.73529 32.5445 9.73529 32.5445C11.3824 29.9135 12.7941 27.5217 14.4412 24.8907C14.9118 23.934 15.1471 23.2165 15.1471 22.2597C15.1471 17.7153 15.1471 13.1709 15.1471 8.62647V7.90894H23.3824V8.62647C23.3824 13.1709 23.3824 17.7153 23.3824 22.2597C23.3824 23.2165 23.6176 24.1732 24.0882 24.8907C25.7353 27.5217 27.1471 29.9135 28.7941 32.5445C29.2647 32.5445 29.2647 32.7837 29.5 33.0229Z" stroke="#96460A" stroke-width="2.3475" stroke-miterlimit="10"/>
<path d="M36.619 44.6571C38.7403 48.2052 36.8547 52.6994 32.8478 53.8821C32.3764 53.8821 31.905 54.1186 31.4336 54.1186C27.4268 54.1186 23.6556 54.1186 19.6487 54.1186C15.6419 54.1186 11.635 54.1186 7.62815 54.1186C4.09268 54.1186 1.5 51.2802 1.5 47.7321C1.5 46.786 1.7357 45.8398 2.44279 44.8937C4.09268 42.0552 5.97826 39.2167 7.62815 36.3783C7.86385 36.1418 8.09954 36.1417 8.33524 36.1417H29.0767C29.7838 36.1417 30.4909 35.9052 31.198 36.1417C31.6693 36.3783 31.905 37.3244 32.3764 37.7975C33.7906 39.9264 35.2048 42.2917 36.619 44.6571Z" stroke="#96460A" stroke-width="2.3475" stroke-miterlimit="10"/>
<path d="M24.5 1.88159H13.5V4.89526H24.5V1.88159Z" stroke="#96460A" stroke-width="2.11728" stroke-miterlimit="10"/>
</svg>
