<svg width="56" height="52" viewBox="0 0 56 52" fill="none" xmlns="http://www.w3.org/2000/svg">
<path d="M20.2329 40.8109C20.0074 40.8109 20.0074 40.8109 20.0074 40.8109H19.782C19.5565 40.8109 19.5565 40.8109 19.3311 40.8109C19.1057 40.8109 18.8802 40.8109 18.8802 40.8109C18.6548 40.8109 18.4294 40.8109 18.4294 40.8109C18.2039 40.8109 17.9785 40.8109 17.7531 40.5623C17.5276 40.5623 17.3022 40.5623 17.3022 40.3136C17.0767 40.3136 17.0767 40.3136 16.8513 40.3136C15.0478 39.8164 13.4698 39.3191 11.8917 38.5732C7.83384 36.5841 4.67773 33.849 2.42336 30.1194C1.52162 28.379 0.845308 26.6385 0.394435 24.898C0.168998 23.6548 0.168998 22.4116 0.394435 21.1684C0.619871 17.9361 1.52162 14.9524 3.09967 11.9688C3.55055 11.2229 4.00142 10.4769 4.45229 9.73103C4.45229 9.73103 4.45229 9.48239 4.67773 9.48239C4.67773 9.48239 4.67773 9.23375 4.90317 9.23375C4.90317 8.98511 4.90317 8.98511 5.1286 8.98511C5.1286 8.98511 5.1286 9.23375 4.90317 9.23375C4.90317 9.23375 4.90317 9.23375 4.90317 9.48239C4.90317 9.73103 4.90317 9.73103 4.67773 9.97967C4.67773 9.97967 4.67773 10.2283 4.45229 10.2283C3.77598 11.9688 3.09967 13.9579 2.87424 15.947C2.6488 16.6929 2.6488 17.4388 2.6488 18.1848C2.6488 19.6766 2.42336 21.1684 2.42336 22.6603C2.42336 24.4007 2.87424 26.1412 3.32511 27.8817C5.35404 33.3517 8.96103 37.0813 14.1461 39.5677C15.0478 40.065 15.7241 40.3136 16.6259 40.5623C16.8513 40.5623 17.0767 40.5623 17.0767 40.8109C17.3022 40.8109 17.5276 40.8109 17.5276 41.0596C17.7531 41.0596 17.7531 41.0596 17.9785 41.0596C18.2039 41.0596 18.4294 41.0596 18.4294 41.3082C18.6548 41.3082 18.8802 41.3082 18.8802 41.5568C19.1057 41.5568 19.1057 41.5568 19.3311 41.5568H19.5565C20.0074 40.8109 20.0074 40.8109 20.2329 40.8109Z" fill="#96460A"/>
<path d="M40.9732 25.6437C40.9732 25.3951 40.9732 25.6437 40.9732 25.6437C40.9732 25.6437 41.1986 25.6437 40.9732 25.6437Z" fill="#96460A"/>
<path d="M34.8864 12.7145C34.4355 12.9632 33.9846 13.4604 33.5337 13.9577C33.5337 11.9686 33.9846 10.4768 34.4355 8.73631C35.3372 5.75264 36.6898 3.0176 39.1697 0.779851C40.2968 -0.214706 39.846 -0.214707 40.9731 0.531211C43.2275 2.02305 45.031 3.76352 45.9327 6.24992C45.9327 6.49855 46.1582 6.74719 46.1582 6.99583C45.4819 7.24447 45.031 7.49311 44.3547 7.49311C44.3547 7.24447 44.1293 6.99583 44.1293 6.74719C43.2275 5.00672 42.1003 3.51488 40.5223 2.52033C40.2968 2.27169 40.0714 2.27169 39.846 2.52033C37.3662 4.75808 35.7881 7.49311 35.1118 10.9741C35.1118 11.4713 34.8864 11.9686 34.8864 12.4659C35.1118 12.4659 35.1118 12.7145 34.8864 12.7145Z" fill="#96460A"/>
<path d="M55.852 16.9413C55.4011 20.4223 54.4994 23.6546 52.6959 26.8869C50.6669 30.6165 47.9617 33.6002 44.3547 35.5893C43.6784 36.0866 42.7767 36.3352 42.1003 36.5838C40.2969 37.5784 38.2679 37.5784 36.0136 37.3298C35.1118 37.3298 33.9846 37.0811 33.0829 36.8325C32.8574 36.8325 32.632 36.8325 32.632 36.5838C32.4066 36.3352 32.1811 36.3352 31.7303 36.3352C31.2794 36.3352 31.0539 36.0866 30.6031 35.8379C31.0539 35.8379 31.2794 35.8379 31.5048 35.8379C33.0829 35.8379 34.8864 35.8379 36.4644 35.5893C39.3951 35.3406 42.1003 34.5947 44.8056 33.1029C48.638 30.8651 51.1178 27.6328 52.4704 23.406C53.1467 21.4169 53.5976 19.1791 53.823 16.9413C54.0485 15.2009 54.0485 13.4604 54.0485 11.7199C54.0485 11.2226 54.0485 10.4767 54.0485 9.97946C54.0485 9.73082 54.0485 9.73082 53.823 9.73082C52.6959 9.48218 51.5687 9.23354 50.4415 9.23354C46.3836 8.9849 42.5512 9.97945 39.1697 11.9686C34.2101 14.7036 30.8285 18.6818 29.025 24.1519C28.5741 26.141 28.3487 28.1301 28.3487 30.1192C28.5741 30.3679 28.3487 30.6165 28.3487 30.8651C28.3487 30.8651 28.3487 31.1138 28.1233 31.1138C28.1233 31.1138 27.8978 31.1138 27.8978 30.8651C27.447 30.3679 27.6724 29.8706 27.447 29.3733C26.9961 24.6492 28.5741 20.4223 31.5048 16.6927C34.6609 12.7145 38.9442 9.97946 43.9038 8.73626C46.6091 7.99034 49.3143 7.7417 52.245 7.7417C53.1467 7.7417 53.823 7.99034 54.7248 7.99034C55.4011 7.99034 55.4011 8.23898 55.4011 8.73626C56.0774 11.2227 56.0774 14.2063 55.852 16.9413Z" fill="#96460A"/>
<path d="M55.8519 16.9413C55.401 20.4223 54.4993 23.6546 52.6958 26.8869C50.6668 30.6165 47.9616 33.6002 44.3546 35.5893C43.6783 36.0866 42.7766 36.3352 42.1003 36.5838C40.2968 37.5784 38.2678 37.5784 36.0135 37.3298C35.1117 37.3298 33.9845 37.0811 33.0828 36.8325C32.8573 36.8325 32.6319 36.8325 32.6319 36.5838C32.4065 36.3352 32.181 36.3352 31.7302 36.3352C31.2793 36.3352 31.0539 36.0866 30.603 35.8379C31.0539 35.8379 31.2793 35.8379 31.5047 35.8379C33.0828 35.8379 34.8863 35.8379 36.4643 35.5893C39.395 35.3406 42.1002 34.5947 44.8055 33.1029C48.6379 30.8651 51.1177 27.6328 52.4703 23.406C53.1466 21.4169 53.5975 19.1791 53.8229 16.9413C54.0484 15.2009 54.0484 13.4604 54.0484 11.7199C54.0484 11.2226 54.0484 10.4767 54.0484 9.97946C54.0484 9.73082 54.0484 9.73082 53.8229 9.73082C52.6958 9.48218 51.5686 9.23354 50.4414 9.23354C46.3835 8.9849 42.5511 9.97945 39.1696 11.9686C34.21 14.7036 30.8284 18.6818 29.0249 24.1519C28.5741 26.141 28.3486 28.1301 28.3486 30.1192C28.3486 30.3679 28.5741 30.6165 28.1232 30.8651C27.6723 30.3679 27.8977 29.8706 27.6723 29.3733C27.2214 24.6492 28.7995 20.4223 31.7302 16.6927C34.8863 12.7145 39.1696 9.97946 44.1292 8.73626C46.8344 7.99034 49.5397 7.7417 52.4703 7.7417C53.3721 7.7417 54.0484 7.99034 54.9501 7.99034C55.6264 7.99034 55.6264 8.23898 55.6264 8.73626C56.0773 11.2227 56.0773 14.2063 55.8519 16.9413Z" fill="#96460A"/>
<path d="M16.626 40.0648C14.8225 39.5675 13.2444 39.0702 11.6664 38.3243C7.60853 36.3352 4.45242 33.6002 2.19805 29.8706C1.29631 28.1301 0.619996 26.3896 0.169123 24.6492C-0.0563134 23.406 -0.0563134 22.1628 0.169123 20.9196C0.39456 17.6873 1.29631 14.7036 2.87436 11.7199C3.32524 10.974 3.77611 10.2281 4.22698 9.48218C4.45242 9.48218 4.45242 9.48218 4.45242 9.73082C3.77611 11.4713 3.0998 13.4604 2.87436 15.4495C2.64893 16.1954 2.64893 16.9414 2.64893 17.6873C2.64893 19.1791 2.42349 20.6709 2.42349 22.1628C2.42349 23.9032 2.87436 25.6437 3.32524 27.3842C5.35417 32.8543 8.96115 36.5838 14.1462 39.0702C15.0479 39.0702 15.9497 39.5675 16.626 40.0648C16.8514 40.0648 16.8514 39.8162 16.626 40.0648Z" fill="#96460A"/>
<path d="M46.3836 6.74719C45.7073 6.99583 45.2564 7.24447 44.5801 7.24447C44.5801 6.99583 44.3547 6.74719 44.3547 6.49855C43.4529 4.75808 42.3258 3.26624 40.7477 2.27169C40.5223 2.02305 40.2968 2.02305 40.0714 2.27169C37.5916 4.50944 36.0135 7.24447 35.3372 10.7254C35.3372 11.2227 35.1118 11.72 35.1118 12.2173C35.1118 12.4659 35.1118 12.4659 34.8864 12.7145C34.4355 12.9632 33.9846 13.4604 33.5337 13.9577C33.5337 11.9686 33.9846 10.4768 34.4355 8.73631C35.3372 5.75264 36.6898 3.0176 39.1696 0.779851C40.2968 -0.214706 39.846 -0.214707 40.9731 0.531211C43.2275 2.02305 45.031 3.76352 45.9327 6.24992C46.1582 6.24992 46.1582 6.49855 46.3836 6.74719Z" fill="#96460A"/>
<path d="M26.7707 7.49312C26.7707 7.24448 26.7707 7.24448 26.5452 6.99584C25.8689 5.25536 25.1926 3.51489 24.2909 2.02305C24.2909 1.77442 24.2909 1.77441 24.5163 1.77441C25.6435 3.51489 26.5452 5.504 26.7707 7.49312C26.9961 7.49312 26.9961 7.49312 26.7707 7.49312Z" fill="#96460A"/>
<path d="M24.5163 2.02298C24.2908 2.02298 24.0654 2.02298 24.0654 1.77434C24.0654 1.77434 24.0654 1.77434 23.84 1.5257C23.84 1.5257 23.84 1.5257 23.84 1.27707L23.6145 1.02843C23.6145 1.02843 23.6145 1.02842 23.6145 0.779785C23.6145 0.779785 23.6145 0.779786 23.84 1.02843C24.2908 1.5257 24.5163 1.77434 24.5163 2.02298Z" fill="#96460A"/>
<path d="M7.38323 7.24452C7.15779 6.99588 7.38323 6.4986 7.15779 6.24997C7.15779 6.00133 7.15779 6.00132 7.38323 5.75269C7.38323 6.24996 7.38323 6.74724 7.38323 7.24452Z" fill="#96460A"/>
<path d="M39.846 26.3896C39.6206 26.3896 39.6206 26.6382 39.3951 26.6382H39.1697C39.3951 26.141 39.6206 26.141 39.846 26.3896C39.846 26.141 39.846 26.141 39.846 26.3896Z" fill="#96460A"/>
<path d="M28.3486 30.8653C28.1231 30.8653 28.3486 30.8653 28.3486 30.8653C28.3486 30.6167 28.1231 30.1194 28.3486 30.1194C28.574 30.368 28.574 30.6167 28.3486 30.8653C28.574 30.8653 28.574 30.8653 28.3486 30.8653Z" fill="#96460A"/>
<path d="M26.996 8.73626C26.996 8.48762 26.9961 8.23898 26.7706 7.99034C26.7706 7.99034 26.7706 7.7417 26.996 7.7417C27.2215 8.23898 27.2215 8.48762 26.996 8.73626C27.2215 8.73626 27.2215 8.73626 26.996 8.73626Z" fill="#96460A"/>
<path d="M26.996 7.9903C26.7706 7.9903 26.7706 7.74166 26.7706 7.49302C26.7706 7.49302 26.7706 7.49302 26.996 7.24438C26.996 7.49302 26.996 7.74166 26.996 7.9903Z" fill="#96460A"/>
<path d="M17.753 40.0646C17.753 40.3132 17.753 40.3132 17.753 40.0646C17.3022 40.0646 17.3022 40.3132 17.0767 40.0646C17.0767 40.0646 17.0767 40.0646 17.3022 39.8159C17.3022 40.0646 17.5276 40.0646 17.753 40.0646Z" fill="#96460A"/>
<path d="M27.2215 9.23346C26.9961 8.98483 26.9961 8.98483 26.9961 8.73619C26.9961 8.73619 26.9961 8.73619 27.2215 8.48755C27.447 8.73619 27.2215 8.98483 27.2215 9.23346Z" fill="#96460A"/>
<path d="M17.3023 40.0646C17.0769 40.0646 17.0769 40.0646 17.3023 40.0646C17.0769 40.0646 16.8514 40.3132 16.8514 40.0646C16.8514 40.0646 16.8514 40.0646 16.8514 39.8159C16.8514 39.8159 17.0769 40.0646 17.3023 40.0646Z" fill="#96460A"/>
<path d="M4.90322 8.73633C4.90322 8.98497 4.90322 8.98496 4.67778 9.2336C4.67778 9.2336 4.67778 9.2336 4.45235 8.98496C4.45235 8.98496 4.67778 8.73633 4.90322 8.73633C4.90322 8.73633 4.67778 8.73633 4.90322 8.73633Z" fill="#96460A"/>
<path d="M18.2041 40.3135C18.2041 40.3135 18.2041 40.5621 18.2041 40.3135C17.9787 40.3135 17.7532 40.3135 17.5278 40.3135H17.7532C17.9787 40.3135 17.9787 40.3135 18.2041 40.3135Z" fill="#96460A"/>
<path d="M18.6549 40.5621C18.4294 40.5621 18.204 40.5621 17.9786 40.5621C17.9786 40.5621 17.9786 40.5621 17.9786 40.3135C18.204 40.3135 18.4294 40.3135 18.6549 40.5621Z" fill="#96460A"/>
<path d="M27.4469 9.48228C27.2214 9.48228 27.2214 9.73092 27.4469 9.48228C27.2214 9.23364 27.2214 9.23364 27.2214 9.23364H27.4469C27.4469 9.23364 27.4469 9.23364 27.4469 9.48228Z" fill="#96460A"/>
<path d="M19.3313 40.5621C19.1058 40.5621 19.1058 40.5621 19.3313 40.5621C19.1058 40.5621 18.8804 40.5621 18.8804 40.5621C18.8804 40.5621 18.8804 40.5621 18.8804 40.3135C18.8804 40.5621 19.1058 40.5621 19.3313 40.5621Z" fill="#96460A"/>
<path d="M40.5224 25.8923C40.5224 25.8923 40.297 25.8923 40.297 26.141C40.297 26.141 40.0715 26.141 40.0715 25.8923C40.0715 25.8923 40.297 25.8923 40.5224 25.8923Z" fill="#96460A"/>
<path d="M4.67791 9.23335C4.67791 9.23335 4.67791 9.48199 4.45247 9.48199C4.45247 9.48199 4.45247 9.48199 4.22704 9.23335C4.45247 9.23335 4.45247 8.98472 4.67791 9.23335C4.67791 8.98472 4.67791 8.98472 4.67791 9.23335Z" fill="#96460A"/>
<path d="M19.5566 40.811C19.3311 40.811 19.3311 40.811 19.1057 40.811C19.3311 40.5624 19.5566 40.5624 19.5566 40.811Z" fill="#96460A"/>
<path d="M40.0712 26.141C40.0712 26.141 39.8458 26.141 39.8458 26.3897C39.8458 26.3897 39.8458 26.3897 39.6203 26.141C39.8458 26.141 39.8458 25.8924 40.0712 26.141Z" fill="#96460A"/>
<path d="M40.7476 25.6438C40.7476 25.8924 40.5222 25.8924 40.5222 25.8924V25.6438C40.5222 25.6438 40.5222 25.6438 40.7476 25.6438Z" fill="#96460A"/>
<path d="M4.9034 8.48765C4.9034 8.73629 4.9034 8.73629 4.9034 8.48765C4.9034 8.23901 4.9034 8.23901 5.12883 8.23901C5.12883 8.48765 5.12883 8.48765 4.9034 8.48765Z" fill="#96460A"/>
<path d="M19.7822 40.811H19.5567C19.5567 40.5624 19.7822 40.5624 19.7822 40.811Z" fill="#96460A"/>
<path d="M26.7706 7.49302C26.7706 7.49302 26.5452 7.24438 26.7706 7.24438C26.7706 7.24438 26.7706 7.24439 26.7706 7.49302Z" fill="#96460A"/>
<path d="M22.4875 37.0813C22.0366 37.0813 21.8112 36.8326 21.5857 36.584C18.2042 34.5949 15.4989 32.1085 13.2446 28.6276C11.4411 25.8925 9.86301 23.1575 8.96127 20.1738C8.73583 19.1793 8.51039 18.1847 8.28496 17.1902V16.9415C8.28496 16.9415 8.28496 16.9415 8.51039 16.6929C8.51039 16.6929 8.5104 16.6929 8.73583 16.9415C9.41214 19.4279 10.7648 21.9143 12.1174 24.152C14.8226 28.3789 17.7533 32.3571 21.5857 35.8381C21.5857 36.0867 22.0366 36.3354 22.4875 37.0813C22.7129 36.8326 22.7129 37.0813 22.7129 37.0813C22.7129 37.0813 22.9383 37.0813 22.7129 37.3299C22.7129 37.3299 22.7129 37.3299 22.4875 37.3299C22.7129 37.0813 22.4875 37.0813 22.4875 37.0813Z" fill="#96460A"/>
<path d="M7.15749 6.24997C7.15749 6.00133 7.15749 6.00132 7.38293 5.75269C7.38293 6.24996 7.38293 6.74724 7.38293 7.24452C7.8338 9.23363 8.96098 10.9741 10.539 12.2173C11.8917 13.2119 13.2443 13.9578 14.8223 14.4551C15.7241 14.7037 16.8513 15.201 17.5276 15.6983C18.4293 16.1955 19.1056 16.6928 20.0074 17.1901C21.8109 18.4333 22.7126 20.4224 23.1635 22.4115C23.6144 24.6493 23.6144 26.887 23.3889 29.1248C23.3889 29.622 23.3889 30.1193 23.3889 30.368C23.3889 30.6166 23.3889 30.6166 23.3889 30.8652C23.3889 31.1139 23.3889 31.1139 23.3889 31.3625V31.6112V31.8598C23.3889 31.8598 23.1635 31.8598 23.1635 31.6112V31.3625C23.1635 31.1139 23.1635 30.8652 23.1635 30.6166C23.1635 30.368 23.1635 29.8707 23.1635 29.622C23.1635 27.3843 22.7126 25.1465 22.0363 22.9088C21.8109 22.1629 21.5854 21.6656 21.36 20.9197C20.6837 19.1792 19.5565 17.936 17.9784 16.9414C16.4004 16.4442 14.5969 15.6983 12.568 14.9523C9.63729 13.9578 7.8338 11.72 6.93205 8.73636C6.93205 7.99044 6.93205 7.24452 7.15749 6.24997Z" fill="#96460A"/>
<path d="M23.6145 0.779785C23.84 0.779785 23.84 0.779785 23.84 0.779785H24.0654C24.0654 0.779785 24.0654 0.779786 24.2908 1.02843C24.5163 1.27706 24.7417 1.5257 24.7417 1.77434C25.8689 3.51481 26.7706 5.25529 27.2215 7.2444C27.4469 7.49304 27.4469 7.49304 27.4469 7.74168C27.6724 7.99032 27.4469 8.23896 27.6724 8.4876C27.8978 8.73624 27.6724 8.98488 27.6724 9.23351V9.48215C27.6724 9.48215 27.4469 9.48215 27.4469 9.23351V8.98487C27.4469 8.73624 27.4469 8.73624 27.2215 8.4876C27.2215 8.23896 27.2215 7.99032 26.9961 7.74168C26.9961 7.49304 26.7706 7.49304 26.7706 7.2444C26.7706 7.2444 26.5452 6.99576 26.7706 6.99576C26.0943 5.25529 25.418 3.51482 24.5163 2.02298C24.2908 2.02298 24.2908 1.77434 24.2908 1.5257C24.2908 1.5257 24.0654 1.5257 24.0654 1.27707C24.0654 1.27707 24.0654 1.27706 24.0654 1.02843L23.84 0.779785C23.6145 1.27706 23.6145 1.27706 23.6145 0.779785C23.6145 1.02842 23.3891 1.02842 23.6145 0.779785Z" fill="#96460A"/>
<path d="M26.3197 8.98477C25.6434 6.24974 24.7417 3.76335 22.9382 1.5256C22.7127 1.27696 22.7127 1.02832 22.4873 1.02832C22.2619 1.27696 22.2619 1.5256 22.2619 1.5256C21.811 3.01743 21.5856 4.50927 21.3601 6.0011C20.9093 8.73614 21.1347 11.4712 22.0364 14.2062C22.7127 16.4439 23.6145 18.4331 25.1925 19.9249C25.418 20.1735 25.6434 20.4222 25.8689 20.4222C26.3197 20.6708 26.5452 20.6708 26.5452 20.1735C26.7706 19.179 26.996 18.1844 26.996 17.1899C27.2215 14.4548 26.996 11.7198 26.3197 8.98477ZM25.6434 17.9358C25.1925 17.4385 24.9671 16.9412 24.5162 16.4439C23.6145 14.7035 23.1636 12.7144 22.9382 10.7252C22.7127 8.48749 22.9382 6.24974 23.3891 4.26063C23.6145 4.26063 23.6145 4.50927 23.6145 4.50927C24.5162 6.0011 24.9671 7.74158 25.1925 9.73069C25.418 11.4712 25.6434 13.4603 25.6434 15.2008C25.8689 16.1953 25.8689 16.9412 25.6434 17.9358Z" fill="#96460A"/>
<path d="M28.3487 37.0811C26.9961 39.3188 25.6435 41.8052 24.9672 44.2916C24.9672 44.5403 24.7418 44.5403 24.7418 44.7889C23.6146 47.0267 22.7128 49.2644 22.262 51.7508V51.9994V51.7508C22.0365 49.5131 22.262 47.5239 22.9383 45.2862C24.0654 40.8107 26.0944 36.8325 29.0251 33.3515C29.2505 33.1029 29.2505 33.1029 29.4759 32.8542C32.4066 30.3678 35.5627 28.3787 38.9443 26.6382C38.9443 26.6382 38.9443 26.6382 39.1697 26.6382C39.1697 26.6382 39.1697 26.6382 39.3951 26.6382C39.6206 26.3896 39.6206 26.3896 39.846 26.3896L40.0714 26.141C40.0714 26.141 40.2969 25.8923 40.5223 25.8923H40.7478H40.9732L40.7478 26.141C40.7478 26.3896 40.5223 26.3896 40.5223 26.3896C40.5223 26.3896 40.2969 26.3896 40.2969 26.6382C40.2969 26.6382 40.0714 26.6383 40.0714 26.8869C39.846 26.8869 39.846 27.1355 39.6206 27.1355C39.6206 27.1355 39.6206 27.1355 39.3951 27.1355C37.5916 28.3787 35.7881 29.8706 33.9847 31.3624C31.7303 32.6056 29.9268 34.5947 28.3487 37.0811Z" fill="#96460A"/>
<path d="M26.3197 8.98477C25.6434 6.24974 24.7417 3.76335 22.9382 1.5256C22.7127 1.27696 22.7127 1.02832 22.4873 1.02832C22.2619 1.27696 22.2619 1.5256 22.2619 1.5256C21.811 3.01743 21.5856 4.50927 21.3601 6.0011C20.9093 8.73614 21.1347 11.4712 22.0364 14.2062C22.7127 16.4439 23.6145 18.4331 25.1925 19.9249C25.418 20.1735 25.6434 20.4222 25.8689 20.4222C26.3197 20.6708 26.5452 20.6708 26.5452 20.1735C26.7706 19.179 26.996 18.1844 26.996 17.1899C27.2215 14.4548 26.996 11.7198 26.3197 8.98477ZM25.6434 17.9358C25.1925 17.4385 24.9671 16.9412 24.5162 16.4439C23.6145 14.7035 23.1636 12.7144 22.9382 10.7252C22.7127 8.48749 22.9382 6.24974 23.3891 4.26063C23.6145 4.26063 23.6145 4.50927 23.6145 4.50927C24.5162 6.0011 24.9671 7.74158 25.1925 9.73069C25.418 11.4712 25.6434 13.4603 25.6434 15.2008C25.8689 16.1953 25.8689 16.9412 25.6434 17.9358Z" fill="#96460A"/>
<path d="M39.6201 26.6394C39.3947 26.6394 39.3947 26.6394 39.6201 26.6394C39.3947 26.6394 39.3947 26.6394 39.3947 26.888C37.5912 28.1312 35.7877 29.6231 33.9842 31.1149C31.7298 32.8554 29.9263 35.0931 28.5737 37.3309C27.2211 39.5686 25.8685 42.055 25.1922 44.5414C25.1922 44.79 24.9667 44.7901 24.9667 45.0387C23.8395 47.2764 22.9378 49.5142 22.4869 52.0006C22.2615 49.7628 22.4869 47.7737 23.1632 45.536C24.2904 41.0605 26.3194 37.0822 29.25 33.6013C29.4755 33.3527 29.4755 33.3527 29.7009 33.104C32.6316 30.6176 35.7877 28.6285 39.1692 26.888C39.1692 26.888 39.1692 26.888 39.3947 26.888C39.3947 26.888 39.3947 26.888 39.6201 26.888C39.3947 26.3908 39.3947 26.3908 39.6201 26.6394Z" fill="#96460A"/>
<path d="M39.2178 26.1628C38.9923 26.1628 38.9923 26.1628 39.2178 26.1628C38.9923 26.1628 38.9923 26.1628 38.9923 26.4115C37.1888 27.6547 35.3853 29.1465 33.5819 30.6383C31.3275 32.3788 29.524 34.6166 28.1714 36.8543C26.8188 39.0921 25.4661 41.5785 24.7898 44.0648C24.7898 44.3135 24.5644 44.3135 24.5644 44.5621C23.4372 46.7999 22.5355 49.0376 22.0846 51.524C21.8591 49.2863 22.0846 47.2972 22.7609 45.0594C23.8881 40.5839 25.917 36.6057 28.8477 33.1247C29.0731 32.8761 29.0731 32.8761 29.2986 32.6274C32.2292 30.1411 35.3853 28.1519 38.7669 26.4115C38.7669 26.4115 38.7669 26.4115 38.9923 26.4115C38.9923 26.4115 38.9923 26.4115 39.2178 26.4115C38.9923 25.9142 38.9923 25.9142 39.2178 26.1628Z" fill="#96460A"/>
<path d="M23.3891 29.1249C23.3891 29.6222 23.3891 30.1195 23.3891 30.3681C22.9382 30.3681 23.3891 29.8709 23.1636 29.6222C23.1636 27.3845 22.7127 25.1467 22.0364 22.909C21.811 22.163 21.5856 21.6658 21.3601 20.9199C20.6838 19.1794 19.5566 17.9362 17.9786 16.9416C16.4005 16.4443 14.597 15.6984 12.5681 14.9525C9.63742 13.958 7.83393 11.7202 6.93218 8.73654C6.70675 7.99062 6.70675 7.2447 6.93218 6.49878C7.38306 6.74742 6.93218 7.2447 7.15762 7.49334C7.60849 9.48245 8.73568 11.2229 10.3137 12.4661C11.8918 13.212 13.2444 13.958 14.8225 14.4552C15.7242 14.7039 16.8514 15.2012 17.5277 15.6984C18.4295 16.1957 19.1058 16.693 20.0075 17.1903C21.811 18.4335 22.7127 20.4226 23.1636 22.4117C23.8399 24.6494 23.6145 26.8872 23.3891 29.1249Z" fill="#96460A"/>
<path d="M22.4875 37.0813C22.0366 37.0813 21.8112 36.8326 21.5857 36.584C18.2042 34.5949 15.4989 32.1085 13.2446 28.6276C11.4411 25.8925 9.86301 23.1575 8.96127 20.1738C8.73583 19.1793 8.51039 18.1847 8.28496 17.1902V16.9415C8.28496 16.9415 8.28496 16.9415 8.51039 16.6929C8.51039 16.6929 8.5104 16.6929 8.73583 16.9415C9.41214 19.4279 10.7648 21.9143 12.1174 24.152C14.8226 28.3789 17.7533 32.3571 21.5857 35.8381C21.5857 36.0867 22.0366 36.3354 22.4875 37.0813C22.4875 36.8326 22.4875 36.8326 22.4875 37.0813Z" fill="#96460A"/>
<path d="M23.3892 31.1138C23.1637 30.8652 23.1637 31.1138 23.3892 31.1138C23.1637 30.8652 23.1637 30.8652 23.1637 30.8652C23.1637 30.6165 23.1637 30.1192 23.1637 29.8706C23.3892 30.1192 23.1637 30.3679 23.3892 30.6165C23.3892 30.6165 23.3892 30.8652 23.3892 31.1138Z" fill="#96460A"/>
<path d="M23.3892 31.3626H23.1637C23.1637 31.114 23.1637 30.8653 23.1637 30.6167L23.3892 30.8653C23.3892 31.114 23.3892 31.3626 23.3892 31.3626Z" fill="#96460A"/>
<path d="M23.3892 31.6112C23.3892 31.6112 23.3892 31.8598 23.3892 31.6112C23.1637 31.8598 23.1637 31.6112 23.1637 31.6112V31.3625C23.1637 31.3625 23.3892 31.3625 23.3892 31.6112C23.3892 31.6112 23.3892 31.3625 23.3892 31.6112Z" fill="#96460A"/>
<path d="M22.7127 37.0813C22.7127 37.0813 22.4872 37.0813 22.4872 36.8326C22.4872 36.8326 22.4872 36.8326 22.4872 36.584C22.4872 36.8326 22.7127 36.8326 22.7127 37.0813Z" fill="#96460A"/>
<path d="M22.0364 51.9996V51.751C22.2619 51.751 22.2619 51.9996 22.0364 51.9996Z" fill="#96460A"/>
<path d="M22.9382 37.0811C22.7127 37.0811 22.7127 37.3297 22.9382 37.0811C22.7127 37.0811 22.7127 37.0811 22.9382 37.0811Z" fill="#96460A"/>
<path d="M23.6146 1.02852C23.3891 1.02852 23.6146 1.02852 23.6146 1.02852C23.6146 0.779881 23.6146 0.779881 23.6146 1.02852C23.84 1.02852 23.6146 1.02852 23.6146 1.02852Z" fill="#96460A"/>
<path d="M40.9732 25.6437C40.9732 25.3951 40.9732 25.6437 40.9732 25.6437C40.9732 25.6437 41.1986 25.6437 40.9732 25.6437Z" fill="#96460A"/>
<path d="M40.9731 25.6438L40.7476 25.8924C40.7476 25.6438 40.7476 25.6438 40.9731 25.6438Z" fill="#96460A"/>
<path d="M4.90328 8.48755C4.90328 8.73619 4.90328 8.73619 4.90328 8.48755C4.67785 8.73619 4.90328 8.73619 4.90328 8.48755C4.67785 8.73619 4.67785 8.73619 4.90328 8.48755C4.90328 8.73619 4.90328 8.48755 4.90328 8.48755Z" fill="#96460A"/>
<path d="M39.1697 26.3896C38.9443 26.6383 39.1697 26.6383 39.1697 26.3896C38.9443 26.3896 38.9443 26.3896 39.1697 26.3896Z" fill="#96460A"/>
<path d="M23.84 1.02832C23.84 1.02832 23.84 1.27696 23.84 1.02832C23.6146 1.27696 23.6146 1.27696 23.84 1.02832C23.6146 1.02832 23.6146 1.02832 23.84 1.02832Z" fill="#96460A"/>
</svg>
