<svg width="55" height="54" viewBox="0 0 55 54" fill="none" xmlns="http://www.w3.org/2000/svg">
<path d="M53.5 27C53.5 41.3 41.8 53 27.5 53C17.1 53 8.26 47.02 4.1 38.44C3.32 36.62 2.54 34.54 2.02 32.46C1.76 30.9 1.5 29.08 1.5 27.26C1.5 26.74 1.5 25.96 1.5 25.44C1.76 21.8 2.8 18.16 4.36 15.04C6.96 10.1 11.38 5.94 16.58 3.6C17.36 3.08 17.88 2.82 18.4 2.56C21.26 1.52 24.38 1 27.5 1C31.66 1 35.3 2.04 38.94 3.6C39.46 3.86 39.98 4.12 40.24 4.38C48.3 8.8 53.5 17.12 53.5 27Z" stroke="#96460A" stroke-width="2" stroke-miterlimit="10"/>
<path d="M9.30023 37.6596C8.26023 36.6196 7.74023 35.3196 6.96023 34.2796C5.40023 31.1596 4.62023 27.7796 5.14023 23.8796C5.40023 22.3196 5.66023 20.7596 6.44023 19.1996C6.96023 18.1596 7.48023 17.3796 8.26023 16.3396C10.0802 13.9996 12.1602 12.1796 14.5002 10.6196C15.0202 10.3596 15.8002 9.83959 16.5802 9.57959C16.5802 9.57959 16.5802 9.57959 16.5802 9.83959C15.2802 10.8796 13.7202 11.9196 12.6802 13.2196C12.1602 13.7396 11.6402 14.2596 11.3802 14.7796C10.6002 15.8196 9.82023 16.8596 9.04023 18.1596C8.26023 19.4596 7.48023 21.0196 7.22023 22.3196C5.92023 27.2596 6.44023 31.4196 8.52023 35.5796C8.52023 36.3596 9.04023 36.8796 9.30023 37.6596Z" fill="#96460A"/>
<path d="M19.6996 34.7999C19.4396 35.0599 19.1796 35.32 19.1796 35.58C18.9196 35.32 19.4396 35.32 19.1796 35.06C20.2196 33.76 20.7396 31.94 21.2596 30.38C21.5196 29.86 21.5196 29.34 21.5196 28.82C21.7796 27.52 21.5196 25.96 20.7396 24.66C20.2196 23.36 19.4396 22.06 18.3996 20.76C16.8396 18.68 16.5796 16.34 17.0996 14.26C17.3596 13.74 17.6196 13.22 18.1396 12.7C18.3996 12.96 17.8796 13.22 17.8796 13.48C17.3596 15.04 17.3596 16.6 18.1396 18.16C18.6596 19.46 19.1796 20.4999 20.2196 21.5399C20.7396 22.32 21.2596 22.84 21.7796 23.62C22.0396 24.4 22.5596 24.92 22.8196 25.7C23.3396 27.26 23.3396 29.08 22.8196 30.6399C21.7796 32.1999 20.9996 33.5 19.6996 34.7999Z" fill="#96460A"/>
<path d="M15.7998 39.2195C15.5398 38.9595 15.5398 38.6995 15.2798 38.4395C13.7198 35.5795 12.9398 32.7195 12.9398 29.5995C12.9398 26.9995 12.9398 24.6595 13.4598 22.3195C13.7198 21.5395 13.9798 20.7595 14.2398 20.2395C14.2398 20.2395 14.2398 20.2395 14.2398 19.9795C14.2398 19.9795 14.2398 19.9795 14.4998 19.9795C14.4998 19.9795 14.4998 19.9795 14.4998 20.2395C13.9798 22.3195 13.7198 24.1395 13.7198 26.2195C13.7198 30.1195 14.2398 34.0195 15.2798 37.9195C15.5398 38.4395 15.7998 38.6995 15.7998 39.2195Z" fill="#96460A"/>
<path d="M48.5602 29.6006C48.3002 32.7206 47.2602 35.5806 45.7002 38.1806C43.8802 41.3006 41.2802 44.1606 37.6402 45.9806C36.8602 46.2406 36.0802 46.7606 35.5602 47.0206C33.7402 47.8006 31.6602 47.8006 29.8402 47.8006C28.8002 47.8006 28.0202 47.5406 26.9802 47.2806C26.7202 47.2806 26.4602 47.2806 26.4602 47.0206C26.2002 46.7606 25.9402 46.7606 25.6802 46.7606C25.4202 46.7606 25.1602 46.5006 24.6402 46.2406C25.1602 46.2406 25.1602 46.2406 25.4202 46.2406C26.9802 46.2406 28.5402 46.2406 30.3602 46.2406C33.2202 45.9806 35.8202 45.2006 38.4202 43.9006C42.0602 42.0806 44.4002 38.9606 45.9602 35.5806C46.7402 33.7606 47.0002 31.9406 47.2602 29.8606C47.5202 28.3006 47.5202 26.7406 47.5202 25.1806C47.5202 24.6606 47.5202 24.1406 47.5202 23.6206C47.5202 23.3606 47.5202 23.3606 47.2602 23.3606C46.2202 23.1006 45.1802 22.8406 43.8802 22.8406C39.9802 22.5806 36.3402 23.6206 32.9602 25.1806C28.2802 27.7806 24.9002 31.1606 23.0802 35.8406C22.5602 37.6606 22.3002 39.2206 22.3002 41.0406C22.3002 41.3006 22.5602 41.5606 22.0402 41.5606C21.7802 41.0406 21.7802 40.7806 21.7802 40.2606C21.5202 36.1006 22.8202 32.2006 25.6802 29.0806C28.8002 25.4406 32.9602 23.3606 37.6402 22.0606C40.2402 21.2806 42.8402 21.0206 45.7002 21.2806C46.4802 21.2806 47.2602 21.5406 48.0402 21.5406C48.5602 21.5406 48.5602 21.8006 48.8202 22.0606C48.8202 24.6606 49.0802 27.2606 48.5602 29.6006Z" fill="#96460A"/>
<path d="M24.1205 44.1594C24.1205 43.8994 24.3805 43.6394 24.6405 43.3794C26.4605 39.9994 28.5405 37.3994 31.6605 35.3194C34.0005 33.7594 36.3405 32.1994 39.2005 31.1594C39.9805 30.8994 41.0205 30.6394 41.8005 30.3794H42.0605C42.0605 30.3794 42.0605 30.3794 42.3205 30.3794C39.9805 31.1594 38.1605 32.4594 36.0805 33.7594C32.4405 36.3594 28.8005 39.2194 25.9405 42.8594C24.9005 43.3794 24.6405 43.6394 24.1205 44.1594C24.3805 44.1594 24.1205 44.1594 24.1205 44.1594Z" fill="#96460A"/>
<path d="M34.52 15.8195C32.18 16.8595 29.84 18.1595 28.02 20.2395C27.76 20.4995 27.76 20.4995 27.5 20.7595C27.76 21.0195 28.02 21.0195 28.02 21.0195C29.58 21.2795 30.88 21.2795 32.44 21.2795C35.04 21.2795 37.64 20.7595 39.98 19.4595C41.8 18.4195 43.62 17.1195 44.92 15.2995C45.18 15.0395 45.18 14.7795 45.18 14.5195C45.44 13.9995 45.18 13.9995 44.66 13.7395C43.62 13.4795 42.58 13.4795 41.8 13.4795C39.46 13.9995 36.86 14.7795 34.52 15.8195ZM42.84 15.0395C42.32 15.5595 42.06 16.0795 41.54 16.3395C39.98 17.3795 38.42 18.4195 36.6 18.6795C34.52 19.1995 32.44 19.1995 30.36 19.1995C30.36 18.9395 30.62 18.9395 30.62 18.6795C31.92 17.6395 33.48 16.8595 35.3 16.3395C37.12 15.8195 38.68 15.5595 40.5 15.0395C41.02 15.2995 41.8 15.2995 42.84 15.0395Z" fill="#96460A"/>
<path d="M36.8603 7.76046C36.6003 8.02046 36.6002 8.28046 36.3402 8.54046C34.0002 11.6605 31.1402 14.0005 27.5002 15.5605C26.4602 16.0805 25.4202 16.3405 24.1202 16.6005C23.8602 16.6005 23.8602 16.6005 23.6002 16.3405C23.3402 15.8205 23.0802 15.3005 22.8202 14.7805C22.0402 13.4805 21.5202 11.9205 21.0002 10.3605C20.4802 9.06046 20.2202 8.02046 19.9602 6.72046C19.4402 6.98046 19.1802 6.98046 18.6602 7.24046C18.9202 8.54046 19.1802 10.1005 19.7002 11.4005C20.4802 13.7405 21.7802 16.0805 23.0802 17.9005C23.6002 18.6805 23.6002 18.6805 24.1202 18.4205C24.9002 18.1605 25.6802 17.9005 26.4602 17.6405C29.0602 16.6005 31.4002 15.0405 33.4802 13.4805C35.3002 11.9205 36.8603 10.3605 38.1602 8.54046L36.8603 7.76046Z" fill="#96460A"/>
<path d="M18.6602 7.50042C23.6002 4.38042 30.8802 3.86042 35.8202 6.72042C36.6002 7.24042 37.1202 7.76043 37.9002 8.28043C37.1202 8.02043 36.3402 7.50042 35.5602 7.24042C31.6602 5.68042 27.5002 5.42042 23.3402 6.20042C22.0402 6.46042 20.2202 6.98042 18.6602 7.50042Z" fill="#96460A"/>
</svg>
