<svg width="32" height="32" viewBox="0 0 32 32" fill="none" xmlns="http://www.w3.org/2000/svg">
<path d="M16 0C24.8366 0 32 7.16344 32 16C32 24.8366 24.8366 32 16 32C7.16344 32 0 24.8366 0 16C0 7.16344 7.16344 0 16 0Z" fill="#C06826"/>
<path d="M22.7107 9.37651C22.2566 8.94852 20.4212 7.58779 16.333 7.56931C16.333 7.56931 11.5119 7.2724 9.16173 9.47398C7.85348 10.8103 7.39326 12.7657 7.34471 15.19C7.29617 17.6142 7.23336 22.1574 11.5215 23.3893H11.5256L11.5229 25.2691C11.5229 25.2691 11.4955 26.0301 11.9861 26.1853C12.5796 26.3735 12.9279 25.7951 13.4946 25.1716C13.8056 24.8293 14.2351 24.3265 14.5587 23.9422C17.4915 24.1943 19.747 23.6182 20.0032 23.533C20.5953 23.3369 23.946 22.8983 24.491 18.3557C25.0535 13.6732 24.2189 10.7115 22.7107 9.37651ZM23.2077 18.0198C22.7478 21.8129 20.0301 22.0513 19.529 22.2154C19.3159 22.2854 17.3349 22.7888 14.8437 22.6227C14.8437 22.6227 12.9875 24.9097 12.4077 25.5044C12.3172 25.5973 12.2107 25.6349 12.1397 25.6164C12.0399 25.5915 12.0124 25.4707 12.0135 25.2943C12.0152 25.0422 12.0295 22.1706 12.0295 22.1706C12.0273 22.1706 12.0295 22.1706 12.0295 22.1706C8.40201 21.1421 8.61347 17.2753 8.65461 15.2505C8.69575 13.2256 9.0682 11.5669 10.1746 10.4512C12.1625 8.6124 16.2575 8.88717 16.2575 8.88717C19.7158 8.90258 21.3729 9.96612 21.7571 10.3224C23.033 11.438 23.683 14.1077 23.2077 18.0187V18.0198Z" fill="#F3E3CC"/>
<path fill-rule="evenodd" clip-rule="evenodd" d="M16.4027 13.6125C16.4093 13.4823 16.5181 13.3822 16.6456 13.389C17.1227 13.4144 17.5196 13.5619 17.8023 13.8604C18.084 14.1578 18.222 14.5732 18.2462 15.0721C18.2526 15.2024 18.1543 15.3132 18.0268 15.3197C17.8992 15.3261 17.7907 15.2258 17.7844 15.0955C17.7636 14.6685 17.6489 14.3777 17.4699 14.1887C17.2921 14.0009 17.0206 13.8819 16.6215 13.8606C16.494 13.8538 16.396 13.7427 16.4027 13.6125Z" fill="#F3E3CC"/>
<path fill-rule="evenodd" clip-rule="evenodd" d="M16.0534 12.3405C16.0627 12.2104 16.1735 12.1127 16.3008 12.1222C17.2718 12.1948 18.0532 12.5336 18.6225 13.1682L18.6226 13.1683C19.1857 13.7966 19.4533 14.5783 19.4338 15.4952C19.4311 15.6256 19.3253 15.729 19.1977 15.7261C19.07 15.7233 18.9688 15.6153 18.9715 15.485C18.9887 14.6764 18.7558 14.0165 18.2815 13.4871C17.8085 12.9599 17.1474 12.659 16.2671 12.5932C16.1397 12.5837 16.044 12.4705 16.0534 12.3405Z" fill="#F3E3CC"/>
<path fill-rule="evenodd" clip-rule="evenodd" d="M15.6445 11.131C15.6454 11.0006 15.7497 10.8956 15.8773 10.8965C17.2191 10.906 18.3533 11.3622 19.2639 12.2688C20.1821 13.1829 20.6362 14.4275 20.6477 15.9732C20.6487 16.1036 20.5459 16.2101 20.4182 16.2111C20.2906 16.2121 20.1863 16.1072 20.1853 15.9768C20.1745 14.5284 19.7526 13.4148 18.9411 12.6069C18.122 11.7915 17.105 11.3775 15.8741 11.3687C15.7464 11.3678 15.6436 11.2614 15.6445 11.131Z" fill="#F3E3CC"/>
<path d="M16.6783 18.2465C16.6783 18.2465 17.0033 18.2745 17.1783 18.0544L17.5195 17.616C17.6841 17.3987 18.0812 17.26 18.4701 17.4813C18.7615 17.651 19.0445 17.8356 19.3179 18.0342C19.5759 18.228 20.1045 18.6784 20.1061 18.6784C20.3579 18.8955 20.416 19.2143 20.2446 19.5504C20.2446 19.5524 20.2432 19.5557 20.2432 19.5574C20.0544 19.8916 19.8147 20.1931 19.5332 20.4503C19.5299 20.452 19.5299 20.4537 19.5269 20.4554C19.2822 20.6642 19.0419 20.7828 18.8058 20.8114C18.7711 20.8176 18.7357 20.8199 18.7005 20.8181C18.5964 20.8191 18.4928 20.8029 18.3939 20.7699L18.3862 20.7585C18.0225 20.6537 17.4153 20.3915 16.4041 19.8218C15.8189 19.496 15.2618 19.1202 14.7387 18.6983C14.4765 18.487 14.2265 18.2605 13.9897 18.0199L13.9645 17.9942L13.9392 17.9684L13.914 17.9426C13.9055 17.9342 13.8973 17.9255 13.8888 17.9169C13.6532 17.6751 13.4314 17.4196 13.2245 17.1519C12.8115 16.6178 12.4435 16.0489 12.1244 15.4514C11.5666 14.4184 11.3098 13.7988 11.2073 13.4269L11.196 13.419C11.1639 13.3179 11.148 13.2122 11.1491 13.1059C11.1472 13.0699 11.1493 13.0338 11.1554 12.9983C11.1849 12.7576 11.3012 12.512 11.5046 12.2614C11.5062 12.2583 11.5079 12.2583 11.5095 12.2549C11.7614 11.9673 12.0565 11.7226 12.3839 11.53C12.3855 11.53 12.3888 11.5283 12.3907 11.5283C12.7198 11.3533 13.032 11.4127 13.2442 11.6684C13.2459 11.6701 13.6861 12.2098 13.8751 12.4734C14.0696 12.7529 14.2503 13.0421 14.4165 13.34C14.6331 13.7369 14.4974 14.1434 14.2845 14.3108L13.8553 14.6593C13.6386 14.838 13.6672 15.1699 13.6672 15.1699C13.6672 15.1699 14.3029 17.6272 16.6783 18.2465Z" fill="#F3E3CC"/>
</svg>
